<svg width="470" height="730" viewBox="0 0 470 730" fill="none" xmlns="http://www.w3.org/2000/svg">
<g filter="url(#filter0_bd_125_551)">
<path d="M90 42.0858C90 29.906 100.795 20.5542 112.85 22.29L450.497 70.9043C460.34 72.3216 467.647 80.7556 467.647 90.7002V669.147C467.647 680.364 458.425 689.387 447.211 689.143L109.564 681.78C98.6907 681.542 90 672.66 90 661.784V42.0858Z" fill="#F9FEFF" fill-opacity="0.6"/>
<path d="M92 32.8513C92 26.7614 97.3972 22.0855 103.425 22.9533L459.425 74.2041C464.347 74.9126 468 79.1297 468 84.102V120.633C468 126.668 462.695 131.327 456.711 130.549L100.711 84.2582C95.7281 83.6104 92 79.3661 92 74.3417V32.8513Z" stroke="black" stroke-width="4"/>
<path d="M389.818 105.902V78.4159L411.678 82.0366V108.488L389.818 105.902Z" stroke="black" stroke-width="3"/>
<line y1="-2" x2="30.5611" y2="-2" transform="matrix(0.464827 0.885402 -0.887758 0.46031 433.302 88.4116)" stroke="black" stroke-width="4"/>
<line y1="-2" x2="28.5476" y2="-2" transform="matrix(-0.622014 0.783006 -0.78675 -0.617272 447.508 88.4116)" stroke="black" stroke-width="4"/>
<line x1="134.616" y1="41.353" x2="134.616" y2="71.9413" stroke="black" stroke-width="4"/>
<line y1="-2" x2="28.4079" y2="-2" transform="matrix(0.990735 0.135807 -0.137473 0.990506 120.778 56.647)" stroke="black" stroke-width="4"/>
<line y1="-2" x2="30.7753" y2="-2" transform="matrix(0.990735 0.135807 -0.137473 0.990506 337.415 88.4116)" stroke="black" stroke-width="4"/>
<path d="M156.569 58.4117C156.569 64.5991 154.626 69.953 151.161 73.7432C147.71 77.5172 142.649 79.8529 136.169 79.8529C129.812 79.8529 123.521 76.5837 118.784 71.6569C114.043 66.7269 111.033 60.3176 111.033 54.2941C111.033 42.2091 120.224 33.4412 133.209 33.4412C139.567 33.4412 145.399 36.563 149.673 41.3074C153.953 46.0576 156.569 52.3266 156.569 58.4117Z" stroke="black" stroke-width="3"/>
<path d="M92 424.967C92 423.824 92.9567 422.913 94.0985 422.969L463.746 441.201C464.811 441.253 465.647 442.132 465.647 443.198V511.769C465.647 512.901 464.708 513.808 463.576 513.768L93.9292 500.667C92.8528 500.629 92 499.746 92 498.669V424.967Z" stroke="black" stroke-width="4"/>
<line y1="-3" x2="47.0588" y2="-3" transform="matrix(0.999391 0.0348995 -0.0761293 0.997098 151.176 469.588)" stroke="#404040" stroke-width="6"/>
<line y1="-3" x2="47.0588" y2="-3" transform="matrix(0.999391 0.0348995 -0.0761293 0.997098 279.413 474.294)" stroke="#404040" stroke-width="6"/>
<line y1="-3" x2="47.0588" y2="-3" transform="matrix(0.999391 0.0348995 -0.0761293 0.997098 392.353 481.353)" stroke="#404040" stroke-width="6"/>
<path d="M237.059 430.765V502.529" stroke="black" stroke-width="4"/>
<line x1="355.529" y1="435.471" x2="355.529" y2="508.412" stroke="black" stroke-width="4"/>
<rect x="113.854" y="451.088" width="7.58823" height="24.0588" stroke="#404040" stroke-width="3"/>
<rect x="256.206" y="456.971" width="7.58823" height="24.0588" stroke="#404040" stroke-width="3"/>
<rect x="370.323" y="462.853" width="7.58823" height="24.0588" stroke="#404040" stroke-width="3"/>
<path d="M92 516.074C92 514.944 92.9358 514.038 94.0654 514.075L463.712 526.166C464.791 526.202 465.647 527.086 465.647 528.165V603.003C465.647 604.124 464.725 605.026 463.604 605.002L93.9572 597.084C92.8695 597.061 92 596.172 92 595.085V516.074Z" stroke="black" stroke-width="4"/>
<line y1="-3" x2="47.0588" y2="-3" transform="matrix(0.999391 0.0348995 -0.0761293 0.997098 151.176 560.765)" stroke="#404040" stroke-width="6"/>
<line y1="-3" x2="47.0588" y2="-3" transform="matrix(0.999391 0.0348995 -0.0761293 0.997098 279.413 565.47)" stroke="#404040" stroke-width="6"/>
<line y1="-3" x2="47.0588" y2="-3" transform="matrix(0.999391 0.0348995 -0.0761293 0.997098 392.353 572.53)" stroke="#404040" stroke-width="6"/>
<path d="M237.059 519V597.824" stroke="black" stroke-width="4"/>
<path d="M355.882 523.118V604.294" stroke="black" stroke-width="4"/>
<rect x="113.854" y="542.265" width="7.58823" height="24.0588" stroke="#404040" stroke-width="3"/>
<rect x="256.206" y="548.147" width="7.58823" height="24.0588" stroke="#404040" stroke-width="3"/>
<rect x="370.323" y="554.029" width="7.58823" height="24.0588" stroke="#404040" stroke-width="3"/>
<path d="M92 610.731C92 609.61 92.921 608.708 94.0416 608.732L463.689 616.422C464.777 616.445 465.647 617.334 465.647 618.422V685.513C465.647 686.632 464.729 687.533 463.61 687.512L93.9626 680.603C92.8728 680.583 92 679.694 92 678.604V610.731Z" stroke="black" stroke-width="4"/>
<line y1="-3" x2="47.0588" y2="-3" transform="matrix(0.999391 0.0348995 -0.0761293 0.997098 151.176 650.765)" stroke="#404040" stroke-width="6"/>
<line y1="-3" x2="47.0588" y2="-3" transform="matrix(0.999391 0.0348995 -0.0761293 0.997098 279.413 655.47)" stroke="#404040" stroke-width="6"/>
<line y1="-3" x2="47.0588" y2="-3" transform="matrix(0.999391 0.0348995 -0.0761293 0.997098 392.353 662.53)" stroke="#404040" stroke-width="6"/>
<path d="M237.059 611.941V683.706" stroke="black" stroke-width="4"/>
<path d="M355.882 616.647V686.647" stroke="black" stroke-width="4"/>
<rect x="113.854" y="632.264" width="7.58823" height="24.0588" stroke="#404040" stroke-width="3"/>
<rect x="256.206" y="638.147" width="7.58823" height="24.0588" stroke="#404040" stroke-width="3"/>
<rect x="370.323" y="644.029" width="7.58823" height="24.0588" stroke="#404040" stroke-width="3"/>
<g clip-path="url(#clip0_125_551)">
<path d="M326.847 274.858L228.512 267.982C221.345 267.481 214.777 264.014 210.017 258.219C205.22 252.379 202.875 244.916 203.415 237.204C203.954 229.492 207.315 222.428 212.878 217.312C217.235 213.306 222.505 210.893 228.057 210.299C228.064 210.169 228.072 210.038 228.081 209.906C229.566 188.672 246.815 172.519 266.532 173.897C273.844 174.409 280.705 177.271 286.374 182.174C290.364 185.625 293.577 189.915 295.849 194.782C300.24 192.273 305.184 191.112 310.22 191.464C323.596 192.399 333.974 203.775 335.011 217.724C340.551 219.04 345.551 222.195 349.381 226.857C354.177 232.697 356.522 240.16 355.983 247.872C355.444 255.585 352.083 262.649 346.52 267.764C341 272.84 334.013 275.359 326.847 274.858ZM231.878 219.846C221.855 219.145 213.097 227.212 212.354 237.829C211.612 248.446 219.162 257.654 229.185 258.354L327.52 265.231C337.543 265.932 346.301 257.864 347.044 247.247C347.786 236.63 340.236 227.423 330.213 226.722L325.743 226.409L326.08 221.596C326.822 210.979 319.406 201.78 309.547 201.091C304.849 200.762 300.267 202.416 296.646 205.746L291.479 210.499L289.474 203.571C286.172 192.166 276.903 184.297 265.859 183.525C251.071 182.49 238.134 194.606 237.021 210.531C236.941 211.668 237.021 212.901 237.106 214.206L237.489 220.238L231.878 219.846Z" fill="black"/>
</g>
<g clip-path="url(#clip1_125_551)">
<path d="M379.676 397.838L350.425 400.912C347.066 401.265 344.044 398.82 343.69 395.459L339.848 358.896C339.494 355.534 341.942 352.514 345.301 352.161L374.552 349.087C377.911 348.734 380.933 351.179 381.286 354.54L385.129 391.104C385.482 394.465 383.034 397.485 379.676 397.838ZM345.557 354.599C343.541 354.811 342.073 356.624 342.285 358.639L346.128 395.203C346.34 397.219 348.153 398.687 350.169 398.475L379.419 395.4C381.435 395.189 382.903 393.376 382.691 391.36L378.848 354.796C378.637 352.781 376.824 351.313 374.808 351.524L345.557 354.599Z" fill="#404040"/>
<path d="M339.906 394.624L337.468 394.881C334.109 395.234 331.087 392.789 330.734 389.427L326.635 350.426C326.281 347.065 328.729 344.045 332.088 343.692L361.339 340.618C364.698 340.265 367.72 342.71 368.073 346.071C368.144 346.744 367.655 347.347 366.982 347.418C366.31 347.489 365.706 347 365.635 346.327C365.424 344.311 363.611 342.843 361.595 343.055L332.344 346.13C330.328 346.341 328.86 348.154 329.072 350.17L333.171 389.171C333.383 391.187 335.196 392.655 337.212 392.443L339.65 392.187C340.322 392.116 340.926 392.605 340.996 393.278C341.067 393.95 340.578 394.554 339.906 394.624Z" fill="#404040"/>
<path d="M373.007 381.287L353.506 383.337C352.833 383.408 352.23 382.919 352.159 382.246C352.089 381.574 352.577 380.97 353.25 380.899L372.75 378.85C373.423 378.779 374.027 379.268 374.097 379.941C374.168 380.613 373.679 381.217 373.007 381.287Z" fill="#404040"/>
<path d="M374.031 391.038L354.531 393.087C353.858 393.158 353.254 392.669 353.184 391.997C353.113 391.324 353.602 390.72 354.274 390.65L373.775 388.6C374.448 388.529 375.051 389.018 375.122 389.691C375.192 390.364 374.704 390.967 374.031 391.038Z" fill="#404040"/>
<path d="M371.981 371.537L352.481 373.587C351.808 373.658 351.205 373.169 351.134 372.496C351.063 371.823 351.552 371.22 352.225 371.149L371.725 369.1C372.398 369.029 373.001 369.518 373.072 370.19C373.143 370.863 372.654 371.467 371.981 371.537Z" fill="#404040"/>
<path d="M370.957 361.787L351.456 363.837C350.784 363.907 350.18 363.419 350.11 362.746C350.039 362.073 350.527 361.47 351.2 361.399L370.701 359.349C371.373 359.279 371.977 359.767 372.048 360.44C372.118 361.113 371.63 361.716 370.957 361.787Z" fill="#404040"/>
</g>
<g clip-path="url(#clip2_125_551)">
<path d="M221.66 297.792L216.711 297.446L217.057 292.497C217.166 290.942 215.982 289.581 214.427 289.472L178.37 286.95C176.815 286.842 175.453 288.025 175.345 289.581L172.181 334.828C172.072 336.383 173.255 337.745 174.811 337.854L179.76 338.2L179.414 343.149C179.305 344.704 180.488 346.066 182.044 346.174L206.081 347.855C207.636 347.964 209.897 347.245 211.103 346.259L219.523 339.376C220.731 338.389 221.807 336.309 221.916 334.754L224.29 300.818C224.399 299.263 223.215 297.901 221.66 297.792ZM182.578 297.901L179.908 336.079L174.959 335.733C174.576 335.706 174.275 335.36 174.302 334.976L177.466 289.729C177.492 289.346 177.839 289.045 178.222 289.072L214.279 291.593C214.662 291.62 214.964 291.966 214.937 292.349L214.591 297.298L185.603 295.271C184.047 295.162 182.686 296.346 182.578 297.901ZM218.177 337.73L209.758 344.613C209.585 344.754 209.364 344.888 209.121 345.014L209.576 338.509C209.61 338.023 209.837 337.6 210.182 337.297C210.531 336.997 210.982 336.831 211.467 336.865L218.541 337.359C218.421 337.501 218.299 337.63 218.177 337.73ZM219.795 334.605C219.78 334.815 219.725 335.056 219.649 335.305L211.616 334.744C209.47 334.598 207.61 336.215 207.455 338.36L206.942 345.698C206.686 345.731 206.441 345.749 206.229 345.734L182.192 344.053L182.192 344.053C181.808 344.026 181.508 343.68 181.535 343.297L184.699 298.05C184.726 297.666 185.071 297.365 185.455 297.392L221.511 299.913C221.895 299.94 222.196 300.287 222.169 300.67L219.795 334.605Z" fill="#404040"/>
<path d="M221.659 297.792L216.71 297.446L217.057 292.497C217.165 290.942 215.982 289.581 214.427 289.472L178.37 286.95C176.815 286.842 175.453 288.025 175.344 289.581L172.18 334.828C172.071 336.383 173.255 337.745 174.81 337.854L179.759 338.2L179.413 343.149C179.305 344.704 180.488 346.066 182.044 346.174L206.081 347.855C207.635 347.964 209.896 347.245 211.103 346.259L219.523 339.376C220.73 338.389 221.807 336.309 221.915 334.754L224.29 300.818C224.398 299.263 223.215 297.901 221.659 297.792ZM182.577 297.901L179.908 336.079L174.959 335.733C174.576 335.706 174.274 335.36 174.301 334.976L177.465 289.729C177.492 289.346 177.838 289.045 178.222 289.072L214.279 291.593C214.661 291.62 214.963 291.966 214.936 292.349L214.59 297.298L185.603 295.271C184.047 295.162 182.686 296.346 182.577 297.901ZM218.177 337.73L209.757 344.613C209.585 344.754 209.363 344.888 209.121 345.014L209.576 338.509C209.61 338.023 209.836 337.6 210.182 337.297C210.531 336.997 210.981 336.831 211.467 336.865L218.54 337.359C218.42 337.501 218.298 337.63 218.177 337.73ZM219.794 334.605C219.78 334.815 219.724 335.056 219.649 335.305L211.615 334.744C209.469 334.598 207.609 336.215 207.455 338.36L206.942 345.698C206.686 345.731 206.44 345.749 206.229 345.734L182.192 344.053L182.192 344.053C181.808 344.026 181.507 343.68 181.534 343.297L184.698 298.05C184.725 297.666 185.071 297.365 185.455 297.392L221.511 299.913C221.894 299.94 222.195 300.287 222.168 300.67L219.794 334.605Z" fill="#404040"/>
<path d="M213.192 307.147L192.689 305.713C192.103 305.672 191.595 306.113 191.554 306.699C191.513 307.285 191.955 307.793 192.541 307.834L213.043 309.267C213.629 309.308 214.137 308.867 214.178 308.281C214.219 307.695 213.777 307.187 213.192 307.147Z" fill="#404040"/>
<path d="M212.203 321.286L191.7 319.853C191.114 319.812 190.606 320.253 190.565 320.839C190.525 321.425 190.966 321.933 191.552 321.974L212.054 323.407C212.64 323.448 213.148 323.007 213.189 322.421C213.23 321.835 212.788 321.327 212.203 321.286Z" fill="#404040"/>
<path d="M202.518 327.714L191.206 326.923C190.62 326.882 190.112 327.323 190.071 327.909C190.03 328.495 190.472 329.003 191.058 329.044L202.369 329.835C202.955 329.875 203.462 329.434 203.503 328.848C203.544 328.262 203.103 327.754 202.518 327.714Z" fill="#404040"/>
<path d="M212.697 314.216L192.194 312.783C191.608 312.742 191.101 313.183 191.06 313.769C191.019 314.355 191.46 314.863 192.046 314.904L212.549 316.337C213.134 316.378 213.642 315.937 213.683 315.351C213.724 314.765 213.282 314.257 212.697 314.216Z" fill="#404040"/>
</g>
</g>
<defs>
<filter id="filter0_bd_125_551" x="0" y="0.848877" width="480" height="728.664" filterUnits="userSpaceOnUse" color-interpolation-filters="sRGB">
<feFlood flood-opacity="0" result="BackgroundImageFix"/>
<feGaussianBlur in="BackgroundImage" stdDeviation="5"/>
<feComposite in2="SourceAlpha" operator="in" result="effect1_backgroundBlur_125_551"/>
<feColorMatrix in="SourceAlpha" type="matrix" values="0 0 0 0 0 0 0 0 0 0 0 0 0 0 0 0 0 0 127 0" result="hardAlpha"/>
<feOffset dx="-60" dy="10"/>
<feGaussianBlur stdDeviation="15"/>
<feComposite in2="hardAlpha" operator="out"/>
<feColorMatrix type="matrix" values="0 0 0 0 0.858824 0 0 0 0 0.968627 0 0 0 0 1 0 0 0 0.4 0"/>
<feBlend mode="normal" in2="effect1_backgroundBlur_125_551" result="effect2_dropShadow_125_551"/>
<feBlend mode="normal" in="SourceGraphic" in2="effect2_dropShadow_125_551" result="shape"/>
</filter>
<clipPath id="clip0_125_551">
<rect width="152.941" height="164.706" fill="white" transform="translate(207.512 137.823) rotate(2)"/>
</clipPath>
<clipPath id="clip1_125_551">
<rect width="58.8235" height="58.8235" fill="white" transform="translate(323.557 344.589) rotate(-6)"/>
</clipPath>
<clipPath id="clip2_125_551">
<rect width="58.8235" height="58.8235" fill="white" transform="translate(170.947 286.431) rotate(4)"/>
</clipPath>
</defs>
</svg>
