<svg id="tab-anim" width="671" width="778" height="880" viewBox="0 0 778 910" fill="none"
    xmlns="http://www.w3.org/2000/svg">
    <g id="tablet-tlted" filter="url(#filter0_f_323_214)">
        <path
            d="M20 865.5L644.13 822.776C649.753 822.391 652.756 829.271 648.65 833.133L637.04 844.052C636.044 844.989 634.756 845.558 633.392 845.663L215 878L20 865.5Z"
            fill="#404040" fill-opacity="0.25" />
    </g>
    <path
        d="M189 31.4558C189 19.6483 197.94 9.75883 209.688 8.57219L220.988 7.43078C233.648 6.15202 244.94 15.3951 246.189 28.0579L325.166 829.19C326.452 842.237 316.588 853.719 303.495 854.414L213.218 859.204C200.055 859.902 189 849.418 189 836.236V31.4558Z"
        fill="#2F2F2F" stroke="#404040" stroke-width="2" />
    <path
        d="M208.515 23.8587C208.515 12.038 219.193 3.08659 230.832 5.15059L621.317 74.3965C630.389 76.0053 636.999 83.8911 636.999 93.1047V816.329C636.999 826.371 629.185 834.679 619.162 835.294L228.678 859.244C217.747 859.914 208.515 851.23 208.515 840.279V23.8587Z"
        fill="black" stroke="#404040" stroke-width="2" />
    <path
        d="M208.515 23.8587C208.515 12.038 219.193 3.08659 230.832 5.15059L621.317 74.3965C630.389 76.0053 636.999 83.8911 636.999 93.1047V816.329C636.999 826.371 629.185 834.679 619.162 835.294L228.678 859.244C217.747 859.914 208.515 851.23 208.515 840.279V23.8587Z"
        fill="black" stroke="#404040" stroke-width="2" />
    <path
        d="M239.51 75.3488C239.51 71.0538 243.342 67.7717 247.586 68.432L611.56 125.062C614.97 125.593 617.484 128.529 617.484 131.979V770.263C617.484 774.036 614.494 777.13 610.723 777.259L246.748 789.663C242.791 789.798 239.51 786.626 239.51 782.667V75.3488Z"
        fill="white" stroke="#404040" stroke-width="2" />
    <path
        d="M401.872 814.437C401.872 809.162 406.024 804.821 411.294 804.585L453.247 802.713C458.648 802.471 463.158 806.785 463.158 812.191C463.158 817.201 459.262 821.347 454.262 821.66L412.349 824.279C406.671 824.634 401.872 820.125 401.872 814.437Z"
        fill="white" stroke="black" stroke-width="3" />
    <path
        d="M447.586 75.1912C447.586 79.4601 444.372 82.8009 440.55 82.8009C436.729 82.8009 433.515 79.4601 433.515 75.1912C433.515 70.9224 436.729 67.5815 440.55 67.5815C444.372 67.5815 447.586 70.9224 447.586 75.1912Z"
        fill="#A6A6A6" stroke="black" stroke-width="2" />
    <g class="tab-screens" id="visual" style="--order: 1" filter="url(#filter1_bd_323_214)">
        <path
            d="M398 107.702C398 95.5139 408.809 86.1596 420.871 87.9093L760.871 137.227C770.705 138.653 778 147.083 778 157.02V760.667C778 771.712 769.046 780.667 758 780.667H418C406.954 780.667 398 771.712 398 760.667V107.702Z"
            fill="#F9FEFF" fill-opacity="0.6" />
        <path
            d="M400 178.072C400 172.063 405.262 167.411 411.226 168.148L487.849 177.613C492.86 178.232 496.623 182.489 496.623 187.537V768.075C496.623 773.598 492.146 778.075 486.623 778.075H410C404.477 778.075 400 773.598 400 768.075V178.072Z"
            stroke="black" stroke-width="4" />
        <g clip-path="url(#clip0_323_214)">
            <path
                d="M468.194 233.596L470.515 231.275C471.417 230.373 471.417 228.911 470.515 228.01C469.613 227.108 468.151 227.108 467.249 228.01L464.929 230.33C461.035 227.086 456.304 225.126 451.257 224.667V220.02H453.489C454.765 220.02 455.798 218.986 455.798 217.711C455.798 216.436 454.765 215.402 453.489 215.402H444.407C443.131 215.402 442.098 216.436 442.098 217.711C442.098 218.986 443.131 220.02 444.407 220.02H446.639V224.667C434.005 225.816 423.933 236.429 423.933 249.576C423.933 263.402 435.121 274.592 448.948 274.592C462.773 274.592 473.963 263.404 473.963 249.576C473.963 243.671 471.929 238.078 468.194 233.596ZM448.948 269.974C437.701 269.974 428.551 260.824 428.551 249.576C428.551 238.33 437.701 229.18 448.948 229.18C460.195 229.18 469.345 238.33 469.345 249.576C469.345 260.824 460.195 269.974 448.948 269.974ZM459.649 238.876C460.551 239.777 460.551 241.24 459.649 242.141L450.581 251.209C449.679 252.111 448.217 252.111 447.315 251.209C446.413 250.308 446.413 248.845 447.315 247.944L456.383 238.876C457.285 237.974 458.747 237.974 459.649 238.876Z"
                fill="black" />
        </g>
        <g clip-path="url(#clip1_323_214)">
            <path
                d="M430.175 344.51H432.488V346.822C432.488 347.78 433.264 348.556 434.222 348.556C435.179 348.556 435.956 347.78 435.956 346.822V344.51H438.268C439.226 344.51 440.002 343.734 440.002 342.776C440.002 341.818 439.226 341.042 438.268 341.042H435.956V338.73C435.956 337.772 435.179 336.996 434.222 336.996C433.264 336.996 432.488 337.772 432.488 338.73V341.042H430.175C429.218 341.042 428.441 341.818 428.441 342.776C428.441 343.734 429.218 344.51 430.175 344.51Z"
                fill="black" />
            <path
                d="M457.112 344.51H464.048C465.006 344.51 465.782 343.734 465.782 342.776C465.782 341.818 465.006 341.042 464.048 341.042H457.112C456.154 341.042 455.377 341.818 455.377 342.776C455.377 343.734 456.154 344.51 457.112 344.51Z"
                fill="black" />
            <path
                d="M464.626 370.29H456.533C455.576 370.29 454.799 371.066 454.799 372.024C454.799 372.982 455.576 373.758 456.533 373.758H464.626C465.583 373.758 466.36 372.982 466.36 372.024C466.36 371.066 465.583 370.29 464.626 370.29Z"
                fill="black" />
            <path
                d="M464.626 364.51H456.533C455.576 364.51 454.799 365.286 454.799 366.244C454.799 367.202 455.576 367.978 456.533 367.978H464.626C465.583 367.978 466.36 367.202 466.36 366.244C466.36 365.286 465.583 364.51 464.626 364.51Z"
                fill="black" />
            <path
                d="M438.338 365.018C437.661 364.341 436.563 364.341 435.885 365.018L434.221 366.682L432.557 365.018C431.88 364.34 430.782 364.34 430.105 365.018C429.428 365.695 429.428 366.793 430.105 367.47L431.769 369.134L430.105 370.798C429.428 371.475 429.428 372.573 430.105 373.25C430.444 373.589 430.887 373.758 431.331 373.758C431.775 373.758 432.219 373.589 432.557 373.25L434.221 371.586L435.885 373.25C436.224 373.589 436.668 373.758 437.112 373.758C437.555 373.758 437.999 373.589 438.338 373.25C439.015 372.573 439.015 371.475 438.338 370.798L436.674 369.134L438.338 367.47C439.015 366.793 439.015 365.695 438.338 365.018Z"
                fill="black" />
            <path
                d="M475.493 359.211V333.065C475.493 330.197 473.159 327.863 470.291 327.863H424.511C421.642 327.863 419.309 330.197 419.309 333.065V378.845C419.309 381.713 421.642 384.047 424.511 384.047H450.657C453.5 385.945 456.913 387.053 460.58 387.053C470.46 387.053 478.499 379.014 478.499 369.134C478.499 365.467 477.391 362.054 475.493 359.211ZM472.025 333.065V355.357C468.918 352.772 464.928 351.215 460.58 351.215C456.232 351.215 452.241 352.772 449.135 355.357V331.331H470.291C471.247 331.331 472.025 332.109 472.025 333.065ZM424.511 331.331H445.667V354.221H422.777V333.065C422.777 332.109 423.555 331.331 424.511 331.331ZM422.777 378.845V357.689H445.667V359.211C443.769 362.054 442.661 365.467 442.661 369.134C442.661 373.482 444.218 377.472 446.803 380.579H424.511C423.555 380.579 422.777 379.801 422.777 378.845ZM460.58 383.585C452.612 383.585 446.129 377.102 446.129 369.134C446.129 361.166 452.612 354.683 460.58 354.683C468.548 354.683 475.03 361.166 475.03 369.134C475.03 377.102 468.548 383.585 460.58 383.585Z"
                fill="black" />
        </g>
        <g clip-path="url(#clip2_323_214)">
            <path
                d="M458.666 468.762L446.375 459.828C445.924 459.501 445.325 459.451 444.831 459.706C444.333 459.958 444.021 460.47 444.021 461.023V478.886C444.021 479.445 444.333 479.956 444.831 480.208C445.042 480.314 445.272 480.367 445.505 480.367C445.808 480.367 446.115 480.271 446.375 480.08L458.666 471.153C459.054 470.868 459.28 470.426 459.28 469.958C459.282 469.481 459.05 469.042 458.666 468.762Z"
                fill="black" />
            <path
                d="M448.905 440.327C432.556 440.327 419.309 453.575 419.309 469.923C419.309 486.265 432.556 499.509 448.905 499.509C465.249 499.509 478.499 486.263 478.499 469.923C478.501 453.575 465.249 440.327 448.905 440.327ZM448.905 494.571C435.29 494.571 424.252 483.539 424.252 469.923C424.252 456.312 435.29 445.267 448.905 445.267C462.517 445.267 473.553 456.31 473.553 469.923C473.555 483.539 462.517 494.571 448.905 494.571Z"
                fill="black" />
        </g>
        <path
            d="M719.249 620.009L706.958 611.075C706.507 610.748 705.908 610.698 705.414 610.953C704.916 611.205 704.604 611.717 704.604 612.27V630.133C704.604 630.692 704.916 631.203 705.414 631.455C705.625 631.561 705.855 631.614 706.088 631.614C706.391 631.614 706.698 631.518 706.958 631.327L719.249 622.4C719.637 622.115 719.863 621.673 719.863 621.205C719.865 620.728 719.633 620.289 719.249 620.009Z"
            fill="#404040" />
        <g clip-path="url(#clip3_323_214)">
            <path
                d="M464.318 574.981H446.438V584.846H464.318C465.329 584.846 466.168 584.008 466.168 582.997V576.831C466.168 575.82 465.329 574.981 464.318 574.981ZM431.64 576.831V582.997C431.64 584.008 432.479 584.846 433.49 584.846H441.505V574.981H433.49C432.479 574.981 431.64 575.82 431.64 576.831Z"
                fill="black" />
            <path
                d="M464.318 589.779H446.438V599.644H464.318C465.329 599.644 466.168 598.805 466.168 597.794V591.628C466.168 590.617 465.329 589.779 464.318 589.779ZM431.64 591.628V597.794C431.64 598.805 432.479 599.644 433.49 599.644H441.505V589.779H433.49C432.479 589.779 431.64 590.617 431.64 591.628Z"
                fill="black" />
            <path
                d="M471.1 555.251H426.707C422.628 555.251 419.309 558.571 419.309 562.65V602.11C419.309 606.189 422.628 609.509 426.707 609.509H471.1C475.179 609.509 478.499 606.189 478.499 602.11V562.65C478.499 558.571 475.179 555.251 471.1 555.251ZM471.1 604.576H426.707C425.348 604.576 424.241 603.472 424.241 602.11V567.583H473.566V602.11C473.566 603.472 472.459 604.576 471.1 604.576Z"
                fill="black" />
        </g>
        <g clip-path="url(#clip4_323_214)">
            <path
                d="M454.347 699.79H443.466C442.555 699.79 441.817 700.528 441.817 701.438V722.788C441.817 723.698 442.555 724.436 443.466 724.436H454.347C455.257 724.436 455.995 723.698 455.995 722.788V701.438C455.995 700.528 455.257 699.79 454.347 699.79ZM452.698 721.139H445.115V703.087H452.698V721.139Z"
                fill="black" />
            <path
                d="M475.944 686.848H464.981C464.07 686.848 463.332 687.586 463.332 688.496V722.788C463.332 723.698 464.07 724.436 464.981 724.436H475.944C476.855 724.436 477.593 723.698 477.593 722.788V688.496C477.593 687.586 476.855 686.848 475.944 686.848ZM474.295 721.139H466.629V690.145H474.295V721.139Z"
                fill="black" />
            <path
                d="M432.833 707.785H421.869C420.959 707.785 420.221 708.523 420.221 709.434V722.788C420.221 723.698 420.959 724.436 421.869 724.436H432.833C433.743 724.436 434.481 723.698 434.481 722.788V709.434C434.481 708.523 433.743 707.785 432.833 707.785ZM431.184 721.139H423.518V711.082H431.184V721.139Z"
                fill="black" />
            <path
                d="M477.758 666.899C477.507 666.554 477.112 666.342 476.686 666.322L461.684 665.251C460.773 665.182 459.98 665.865 459.911 666.776C459.843 667.686 460.526 668.48 461.436 668.548L472.054 669.269L452.534 684.54L437.614 672.835C436.977 672.33 436.067 672.365 435.47 672.917L420.138 687.589C419.487 688.208 419.45 689.234 420.056 689.898C420.35 690.279 420.811 690.494 421.293 690.475C421.727 690.468 422.142 690.291 422.447 689.98L436.707 676.296L451.462 687.919C452.064 688.401 452.921 688.401 453.523 687.919L474.626 671.498L473.801 681.737C473.797 682.632 474.476 683.383 475.367 683.468H475.449C476.299 683.472 477.013 682.83 477.098 681.984L478.17 668.053C478.23 667.624 478.076 667.193 477.758 666.899Z"
                fill="black" />
        </g>
        <path
            d="M400 97.8636C400 91.7702 405.403 87.0933 411.434 87.9669L767.434 139.537C772.351 140.249 776 144.465 776 149.434V186.34C776 192.378 770.69 197.039 764.703 196.256L408.703 149.676C403.724 149.025 400 144.782 400 139.761V97.8636Z"
            stroke="black" stroke-width="4" />
        <path d="M697.818 171.453V143.777L719.678 147.42V174.056L697.818 171.453Z" stroke="black"
            stroke-width="3" />
        <line x1="743.075" y1="152.919" x2="757.281" y2="180.147" stroke="black" stroke-width="4" />
        <line x1="757.078" y1="155.084" x2="739.321" y2="177.576" stroke="black" stroke-width="4" />
        <line x1="442.617" y1="106.492" x2="442.617" y2="137.271" stroke="black" stroke-width="4" />
        <line x1="429.052" y1="119.901" x2="457.197" y2="123.783" stroke="black" stroke-width="4" />
        <line x1="645.688" y1="151.863" x2="676.178" y2="156.069" stroke="black" stroke-width="4" />
        <path
            d="M464.569 123.657C464.569 129.888 462.624 135.279 459.157 139.094C455.705 142.893 450.646 145.242 444.168 145.242C437.814 145.242 431.525 141.954 426.786 136.995C422.045 132.034 419.033 125.581 419.033 119.514C419.033 107.34 428.233 98.522 441.209 98.522C447.563 98.522 453.394 101.662 457.67 106.437C461.95 111.218 464.569 117.529 464.569 123.657Z"
            stroke="black" stroke-width="3" />
        <path
            d="M521.932 194.62C521.932 188.618 527.181 183.968 533.139 184.693L767.208 213.163C772.226 213.773 776 218.034 776 223.09V364.659C776 370.473 771.059 375.062 765.26 374.632L531.191 357.259C525.97 356.871 521.932 352.522 521.932 347.286V194.62Z"
            stroke="black" stroke-width="4" />
        <path
            d="M521.932 390.437C521.932 384.643 526.839 380.063 532.618 380.46L766.687 396.566C771.931 396.927 776 401.286 776 406.542V535.658C776 541.307 771.325 545.834 765.679 545.653L531.611 538.137C526.216 537.964 521.932 533.54 521.932 528.142V390.437Z"
            stroke="black" stroke-width="4" />
        <path
            d="M521.932 576.968C521.932 571.334 526.584 566.813 532.215 566.972L766.284 573.615C771.694 573.769 776 578.199 776 583.611V768.075C776 773.598 771.523 778.075 766 778.075H531.932C526.409 778.075 521.932 773.598 521.932 768.075V576.968Z"
            stroke="black" stroke-width="4" />
        <path
            d="M539.688 412.901C539.688 407.117 544.582 402.539 550.354 402.923L597.382 406.059C602.635 406.409 606.717 410.772 606.717 416.037V452.25C606.717 458.068 601.77 462.657 595.969 462.222L548.941 458.695C543.723 458.304 539.688 453.956 539.688 448.723V412.901Z"
            stroke="#404040" stroke-width="4" />
        <path
            d="M672.274 599.565C672.274 593.898 676.978 589.363 682.641 589.571L739.14 591.648C744.516 591.846 748.772 596.262 748.772 601.642V638.813C748.772 644.336 744.295 648.813 738.772 648.813H682.274C676.751 648.813 672.274 644.336 672.274 638.813V601.389V599.565Z"
            stroke="#404040" stroke-width="4" />
        <line x1="599.508" y1="231.354" x2="748.664" y2="244.404" stroke="#A0A0A0"
            stroke-width="6" />
        <line x1="625.447" y1="426.674" x2="743.664" y2="432.87" stroke="#A0A0A0"
            stroke-width="6" />
        <line x1="628.896" y1="463.631" x2="711.649" y2="467.967" stroke="#A0A0A0"
            stroke-width="6" />
        <line x1="628.896" y1="463.631" x2="711.649" y2="467.967" stroke="#A0A0A0"
            stroke-width="6" />
        <line x1="550.763" y1="606.608" x2="638.479" y2="608.139" stroke="#A0A0A0"
            stroke-width="6" />
        <line x1="550.763" y1="642.122" x2="657.289" y2="643.981" stroke="#A0A0A0"
            stroke-width="6" />
        <line x1="548.604" y1="221.883" x2="583.983" y2="224.979" stroke="#A0A0A0"
            stroke-width="6" />
        <line x1="700.105" y1="282.255" x2="748.548" y2="286.068" stroke="#A0A0A0"
            stroke-width="6" />
        <line x1="539.107" y1="270.417" x2="684.845" y2="281.887" stroke="#A0A0A0"
            stroke-width="6" />
        <line x1="539.081" y1="324.87" x2="751.646" y2="339.734" stroke="#A0A0A0"
            stroke-width="6" />
        <line x1="550.636" y1="498.632" x2="739.785" y2="508.545" stroke="#A0A0A0"
            stroke-width="6" />
        <rect x="552.21" y="709.363" width="19.4922" height="38.433" stroke="#404040"
            stroke-width="3" />
        <rect x="585.357" y="670.297" width="19.4922" height="77.4984" stroke="#404040"
            stroke-width="3" />
        <rect x="618.503" y="690.422" width="19.4922" height="57.3738" stroke="#404040"
            stroke-width="3" />
        <rect x="651.649" y="725.936" width="19.4922" height="21.8598" stroke="#404040"
            stroke-width="3" />
    </g>
    <g class="tab-screens" id="organize" style="--order: 2;" filter="url(#filter2_bd_323_214)">
        <path
            d="M395 109.64C395 97.4733 405.773 88.1252 417.818 89.8397L757.818 138.235C767.676 139.638 775 148.078 775 158.035V749.645C775 760.69 766.046 769.645 755 769.645H415C403.954 769.645 395 760.69 395 749.645V109.64Z"
            fill="#F9FEFF" fill-opacity="0.6" />
        <path
            d="M397 99.8636C397 93.7702 402.403 89.0933 408.434 89.9669L764.434 141.537C769.351 142.249 773 146.465 773 151.434V188.34C773 194.378 767.69 199.039 761.703 198.256L405.703 151.676C400.724 151.025 397 146.782 397 141.761V99.8636Z"
            stroke="black" stroke-width="4" />
        <path d="M694.818 173.453V145.777L716.678 149.42V176.056L694.818 173.453Z" stroke="black"
            stroke-width="3" />
        <line x1="740.075" y1="154.919" x2="754.281" y2="182.147" stroke="black" stroke-width="4" />
        <line x1="754.078" y1="157.084" x2="736.321" y2="179.576" stroke="black" stroke-width="4" />
        <line x1="439.617" y1="108.492" x2="439.617" y2="139.271" stroke="black" stroke-width="4" />
        <line x1="426.052" y1="121.901" x2="454.197" y2="125.783" stroke="black" stroke-width="4" />
        <line x1="642.688" y1="153.863" x2="673.178" y2="158.069" stroke="black" stroke-width="4" />
        <path
            d="M461.569 125.657C461.569 131.888 459.624 137.279 456.157 141.094C452.705 144.893 447.646 147.242 441.168 147.242C434.814 147.242 428.525 143.954 423.786 138.995C419.045 134.034 416.033 127.581 416.033 121.514C416.033 109.34 425.233 100.522 438.209 100.522C444.563 100.522 450.394 103.662 454.67 108.437C458.95 113.218 461.569 119.529 461.569 125.657Z"
            stroke="black" stroke-width="3" />
        <path
            d="M472.815 229.747C472.815 237.866 470.409 244.916 466.103 249.912C461.818 254.884 455.564 257.927 447.607 257.927C439.776 257.927 432.031 253.656 426.198 247.22C420.368 240.788 416.625 232.381 416.625 224.42C416.625 208.436 428.083 197.001 443.998 197.001C451.828 197.001 459.017 201.081 464.292 207.291C469.568 213.503 472.815 221.727 472.815 229.747Z"
            stroke="black" stroke-width="3" />
        <path
            d="M397 180.664C397 174.655 402.262 170.003 408.226 170.74L764.226 214.727C769.237 215.346 773 219.603 773 224.651V298.575C773 304.394 768.051 308.985 762.248 308.547L406.248 281.712C401.032 281.319 397 276.972 397 271.74V180.664Z"
            stroke="black" stroke-width="4" />
        <line x1="505.468" y1="234.872" x2="670.569" y2="249.316" stroke="#404040"
            stroke-width="6" />
        <g clip-path="url(#clip5_323_214)">
            <path
                d="M723.49 266.347C723.151 266.688 722.689 266.878 722.208 266.878C721.728 266.878 721.265 266.688 720.926 266.347L710.688 256.107C709.625 255.045 709.625 253.322 710.688 252.261L711.97 250.979C713.033 249.917 714.754 249.917 715.816 250.979L722.208 257.371L739.48 240.099C740.543 239.037 742.265 239.037 743.326 240.099L744.608 241.381C745.671 242.444 745.671 244.166 744.608 245.227L723.49 266.347Z"
                fill="#00B2FF" />
        </g>
        <path
            d="M472.815 357.598C472.815 365.717 470.409 372.767 466.103 377.763C461.818 382.735 455.564 385.777 447.607 385.777C439.776 385.777 432.031 381.507 426.198 375.071C420.368 368.638 416.625 360.232 416.625 352.271C416.625 336.286 428.083 324.852 443.998 324.852C451.828 324.852 459.017 328.931 464.292 335.141C469.568 341.354 472.815 349.577 472.815 357.598Z"
            stroke="black" stroke-width="3" />
        <path
            d="M397 307.952C397 302.111 401.985 297.513 407.807 297.985L763.807 326.82C769 327.24 773 331.577 773 336.787V417.846C773 423.573 768.2 428.13 762.481 427.832L406.481 409.315C401.167 409.039 397 404.649 397 399.328V307.952Z"
            stroke="black" stroke-width="4" />
        <line x1="505.25" y1="360.605" x2="670.755" y2="369.279" stroke="#404040"
            stroke-width="6" />
        <path
            d="M723.49 384.727C723.151 385.068 722.689 385.258 722.208 385.258C721.728 385.258 721.265 385.068 720.926 384.727L710.688 374.487C709.625 373.425 709.625 371.702 710.688 370.641L711.97 369.359C713.033 368.296 714.754 368.296 715.816 369.359L722.208 375.751L739.48 358.479C740.543 357.417 742.265 357.417 743.326 358.479L744.608 359.761C745.671 360.824 745.671 362.546 744.608 363.607L723.49 384.727Z"
            fill="#00B2FF" />
        <path
            d="M472.815 485.448C472.815 493.567 470.409 500.617 466.103 505.613C461.818 510.585 455.564 513.628 447.607 513.628C439.776 513.628 432.031 509.357 426.198 502.922C420.368 496.489 416.625 488.083 416.625 480.121C416.625 464.137 428.083 452.703 443.998 452.703C451.828 452.703 459.017 456.782 464.292 462.992C469.568 469.204 472.815 477.428 472.815 485.448Z"
            stroke="black" stroke-width="3" />
        <path
            d="M397 435.346C397 429.646 401.757 425.099 407.451 425.356L763.451 441.437C768.793 441.678 773 446.079 773 451.427V532.527C773 538.113 768.424 542.616 762.838 542.526L406.838 536.762C401.379 536.674 397 532.223 397 526.764V435.346Z"
            stroke="black" stroke-width="4" />
        <line x1="505.146" y1="489.636" x2="670.852" y2="492.529" stroke="#404040"
            stroke-width="6" />
        <path
            d="M719.938 505.475C719.599 505.816 719.137 506.006 718.656 506.006C718.176 506.006 717.713 505.816 717.374 505.475L707.136 495.235C706.074 494.172 706.074 492.449 707.136 491.389L708.418 490.107C709.481 489.044 711.202 489.044 712.264 490.107L718.656 496.499L735.928 479.227C736.991 478.164 738.714 478.164 739.774 479.227L741.056 480.509C742.119 481.571 742.119 483.294 741.056 484.355L719.938 505.475Z"
            fill="#00B2FF" />
        <path
            d="M397 566.392C397 560.805 401.578 556.301 407.164 556.393L760.929 562.193C766.343 562.282 770.703 566.664 770.765 572.078L772.863 757.532C772.926 763.099 768.431 767.645 762.863 767.645H407C401.477 767.645 397 763.168 397 757.645V566.392Z"
            stroke="black" stroke-width="4" />
        <g clip-path="url(#clip6_323_214)">
            <path
                d="M587.96 616.602V625.85H578.711V616.602H587.96ZM578.711 670.936V684.115H587.96V670.936H578.711ZM606.456 721.109V711.861H597.208V702.612H587.96V721.109H606.456ZM624.953 652.439H597.208V661.688H624.953V652.439ZM624.953 670.936H637.901V661.688H624.953V670.936ZM624.953 684.115V693.364H647.15V670.936H637.901V684.115H624.953ZM597.208 602.729H587.96V616.602H597.208V602.729ZM587.96 644.347H597.208V625.85H587.96V635.099H578.711V661.688H587.96V644.347ZM528.77 652.439V670.936H538.018V661.688H551.891V652.439H528.77ZM597.208 670.936V661.688H587.96V670.936H597.208ZM615.705 680.185H624.953V670.936H615.705V680.185ZM637.901 661.688H647.15V652.439H637.901V661.688ZM606.456 670.936H597.208V684.115H587.96V693.364H606.456V670.936ZM578.711 702.612H587.96V693.364H578.711V702.612ZM606.456 693.364V702.612H624.953V693.364H606.456ZM634.202 711.861V702.612H624.953V711.861H634.202ZM647.15 721.109V711.861H634.202V721.109H647.15ZM615.705 721.109H624.953V711.861H615.705V721.109ZM570.388 661.688V652.439H561.139V661.688H551.891V670.936H578.711V661.688H570.388ZM570.388 644.347H528.77V602.729H570.388V644.347ZM561.139 611.977H538.018V635.099H561.139V611.977ZM554.203 618.914H544.954V628.162H554.203V618.914ZM647.15 602.729V644.347H605.532V602.729H647.15ZM637.901 611.977H614.78V635.099H637.901V611.977ZM630.965 618.914H621.716V628.162H630.965V618.914ZM528.77 679.491H570.388V721.109H528.77V679.491ZM538.018 711.861H561.139V688.74H538.018V711.861ZM544.954 704.924H554.203V695.676H544.954V704.924Z"
                fill="#404040" />
        </g>
    </g>
    <g class="tab-screens" id="collab" style="--order: 3" filter="url(#filter3_bd_323_214)">
        <path
            d="M394 107.629C394 95.4652 404.767 86.1181 416.81 87.8269L756.81 136.072C766.671 137.471 774 145.913 774 155.873V745.522C774 756.568 765.046 765.522 754 765.522H414C402.954 765.522 394 756.568 394 745.522V107.629Z"
            fill="#F9FEFF" fill-opacity="0.6" />
        <path
            d="M397.18 97.8636C397.18 91.7702 402.583 87.0933 408.614 87.9669L763.434 139.366C768.351 140.078 772 144.294 772 149.263V185.98C772 192.018 766.69 196.679 760.703 195.895L405.883 149.47C400.904 148.819 397.18 144.576 397.18 139.555V97.8636Z"
            stroke="black" stroke-width="4" />
        <path d="M694.071 171.177V143.597L715.854 147.227V173.771L694.071 171.177Z" stroke="black"
            stroke-width="3" />
        <line x1="739.189" y1="152.702" x2="753.351" y2="179.845" stroke="black" stroke-width="4" />
        <line x1="753.147" y1="154.867" x2="735.445" y2="177.289" stroke="black" stroke-width="4" />
        <line x1="439.664" y1="106.422" x2="439.664" y2="137.106" stroke="black" stroke-width="4" />
        <line x1="426.137" y1="119.783" x2="454.194" y2="123.653" stroke="black" stroke-width="4" />
        <line x1="642.098" y1="151.646" x2="672.494" y2="155.839" stroke="black" stroke-width="4" />
        <path
            d="M461.537 123.534C461.537 129.744 459.599 135.117 456.143 138.92C452.703 142.706 447.661 145.047 441.205 145.047C434.872 145.047 428.603 141.77 423.88 136.827C419.155 131.882 416.152 125.451 416.152 119.404C416.152 107.27 425.321 98.4814 438.254 98.4814C444.587 98.4814 450.399 101.611 454.661 106.37C458.927 111.135 461.537 117.426 461.537 123.534Z"
            stroke="black" stroke-width="3" />
        <path
            d="M397.18 562.938C397.18 557.351 401.758 552.847 407.344 552.939L759.937 558.72C765.351 558.808 769.711 563.19 769.772 568.605L771.863 753.409C771.926 758.975 767.431 763.522 761.864 763.522H407.18C401.657 763.522 397.18 759.045 397.18 753.522V562.938Z"
            stroke="black" stroke-width="4" />
        <path
            d="M396 185.4C396 179.418 401.217 174.775 407.158 175.467L763.158 216.981C768.199 217.568 772 221.839 772 226.913V380.535V532.44C772 538.091 767.321 542.62 761.674 542.435L405.674 530.811C400.281 530.635 396 526.213 396 520.817V185.4Z"
            stroke="black" stroke-width="4" />
        <line x1="595.441" y1="200.235" x2="596.622" y2="536.571" stroke="black" stroke-width="4" />
        <path d="M394.141 361.924L770.46 383.162" stroke="black" stroke-width="4" />
        <g clip-path="url(#clip7_323_214)">
            <path
                d="M484.937 279.623C491.041 279.836 496.408 277.641 500.891 273.097C505.373 268.554 507.763 262.888 507.995 256.253C508.226 249.62 506.238 243.8 502.083 238.953C497.928 234.109 492.726 231.545 486.624 231.332C480.519 231.119 475.153 233.314 470.67 237.857C466.188 242.4 463.798 248.068 463.566 254.701C463.334 261.336 465.324 267.157 469.478 272.001C473.634 276.845 478.835 279.41 484.937 279.623ZM474.347 242.144C477.787 238.659 481.735 237.044 486.418 237.207C491.101 237.371 494.928 239.257 498.116 242.975C501.304 246.693 502.768 250.975 502.59 256.064C502.412 261.155 500.653 265.323 497.214 268.81C493.774 272.297 489.825 273.912 485.142 273.748C480.46 273.585 476.634 271.697 473.445 267.98C470.257 264.263 468.793 259.981 468.971 254.89C469.149 249.801 470.907 245.631 474.347 242.144Z"
                fill="#404040" />
            <path
                d="M522.801 309.777C522.745 307.819 522.567 305.679 522.275 303.416C521.98 301.136 521.573 298.976 521.064 296.997C520.538 294.952 519.798 292.924 518.862 290.973C517.892 288.948 516.731 287.174 515.41 285.701C514.029 284.161 512.316 282.901 510.317 281.956C508.325 281.016 506.099 280.497 503.702 280.413C502.761 280.38 501.835 280.768 500.034 281.951C498.925 282.681 497.628 283.524 496.18 284.456C494.943 285.25 493.279 285.977 491.233 286.616C489.236 287.241 487.221 287.523 485.244 287.454C483.268 287.385 481.278 286.963 479.328 286.2C477.333 285.421 475.723 284.58 474.547 283.701C473.181 282.68 471.945 281.748 470.874 280.932C469.161 279.626 468.265 279.175 467.323 279.142C464.925 279.058 462.669 279.421 460.617 280.221C458.559 281.023 456.761 282.16 455.275 283.602C453.854 284.98 452.572 286.668 451.464 288.62C450.396 290.501 449.515 292.471 448.848 294.476C448.203 296.415 447.646 298.54 447.193 300.794C446.743 303.028 446.417 305.151 446.224 307.105C446.035 309.015 445.904 311.005 445.833 313.018C445.651 318.251 447.033 322.541 449.942 325.771C452.815 328.958 456.704 330.659 461.5 330.827L505.91 332.377C510.705 332.545 514.703 331.119 517.792 328.14C520.92 325.124 522.598 320.939 522.781 315.704C522.851 313.685 522.858 311.69 522.801 309.777ZM514.214 323.754C512.173 325.723 509.524 326.622 506.114 326.503L461.706 324.952C458.295 324.833 455.715 323.751 453.817 321.645C451.955 319.579 451.112 316.819 451.238 313.207C451.304 311.328 451.425 309.476 451.602 307.699C451.774 305.956 452.068 304.045 452.476 302.018C452.879 300.016 453.369 298.14 453.933 296.447C454.473 294.823 455.189 293.222 456.062 291.686C456.894 290.221 457.837 288.973 458.863 287.977C459.824 287.045 461.019 286.296 462.416 285.752C463.709 285.249 465.15 284.999 466.704 285.008C466.89 285.124 467.219 285.345 467.752 285.751C468.835 286.577 470.085 287.519 471.466 288.552C473.023 289.713 475.045 290.784 477.471 291.732C479.951 292.702 482.497 293.24 485.039 293.329C487.582 293.417 490.159 293.059 492.7 292.264C495.189 291.487 497.279 290.56 498.916 289.509C500.4 288.553 501.675 287.724 502.814 286.975C503.373 286.608 503.717 286.41 503.911 286.308C505.463 286.407 506.883 286.757 508.137 287.349C509.492 287.989 510.633 288.82 511.526 289.816C512.48 290.881 513.334 292.192 514.062 293.712C514.826 295.304 515.429 296.953 515.854 298.609C516.299 300.34 516.657 302.244 516.919 304.267C517.184 306.322 517.345 308.25 517.395 309.997L517.395 309.999C517.448 311.777 517.441 313.633 517.376 315.517C517.249 319.129 516.215 321.823 514.214 323.754Z"
                fill="#404040" />
        </g>
        <g clip-path="url(#clip8_323_214)">
            <path
                d="M488.413 450.763C494.52 450.763 499.808 448.382 504.13 443.685C508.45 438.988 510.641 433.241 510.641 426.602C510.641 419.965 508.451 414.218 504.129 409.52C499.807 404.824 494.52 402.443 488.413 402.443C482.305 402.443 477.018 404.824 472.697 409.52C468.376 414.217 466.185 419.965 466.185 426.602C466.185 433.241 468.376 438.989 472.697 443.685C477.02 448.381 482.307 450.763 488.413 450.763ZM476.522 413.677C479.837 410.073 483.727 408.321 488.413 408.321C493.099 408.321 496.989 410.073 500.305 413.677C503.621 417.281 505.233 421.51 505.233 426.602C505.233 431.696 503.621 435.924 500.305 439.528C496.989 443.133 493.099 444.885 488.413 444.885C483.728 444.885 479.839 443.132 476.522 439.528C473.205 435.924 471.593 431.696 471.593 426.602C471.593 421.51 473.205 417.281 476.522 413.677Z"
                fill="#404040" />
            <path
                d="M527.306 479.577C527.181 477.622 526.929 475.49 526.558 473.239C526.184 470.97 525.701 468.826 525.124 466.866C524.527 464.84 523.716 462.84 522.713 460.922C521.673 458.933 520.451 457.2 519.079 455.774C517.645 454.283 515.889 453.083 513.859 452.209C511.835 451.339 509.593 450.898 507.194 450.898C506.252 450.898 505.341 451.318 503.581 452.563C502.498 453.331 501.232 454.218 499.818 455.2C498.609 456.038 496.971 456.822 494.948 457.532C492.975 458.226 490.971 458.578 488.992 458.578C487.015 458.578 485.012 458.226 483.037 457.532C481.016 456.823 479.377 456.038 478.171 455.201C476.77 454.228 475.503 453.341 474.404 452.562C472.646 451.317 471.735 450.897 470.793 450.897C468.393 450.897 466.151 451.339 464.128 452.209C462.099 453.083 460.343 454.282 458.907 455.775C457.535 457.202 456.313 458.933 455.274 460.922C454.272 462.84 453.461 464.839 452.864 466.867C452.287 468.827 451.805 470.97 451.43 473.239C451.058 475.487 450.807 477.62 450.683 479.579C450.56 481.495 450.498 483.488 450.498 485.503C450.498 490.739 452.029 494.978 455.049 498.104C458.032 501.189 461.977 502.753 466.777 502.753H511.213C516.012 502.753 519.957 501.189 522.941 498.104C525.961 494.98 527.492 490.74 527.492 485.502C527.492 483.481 527.429 481.487 527.306 479.577ZM519.212 493.845C517.241 495.884 514.625 496.875 511.213 496.875H466.777C463.364 496.875 460.748 495.884 458.778 493.846C456.845 491.846 455.906 489.116 455.906 485.503C455.906 483.623 455.963 481.767 456.077 479.986C456.188 478.238 456.416 476.317 456.753 474.277C457.086 472.262 457.51 470.371 458.014 468.659C458.498 467.017 459.158 465.392 459.976 463.826C460.757 462.334 461.655 461.053 462.646 460.022C463.574 459.057 464.742 458.267 466.12 457.675C467.393 457.127 468.825 456.827 470.379 456.781C470.568 456.891 470.905 457.1 471.452 457.487C472.563 458.275 473.845 459.173 475.261 460.156C476.858 461.263 478.916 462.263 481.374 463.125C483.886 464.008 486.449 464.457 488.993 464.457C491.537 464.457 494.101 464.008 496.612 463.126C499.072 462.262 501.129 461.263 502.728 460.155C504.177 459.148 505.423 458.275 506.535 457.487C507.081 457.101 507.418 456.891 507.608 456.781C509.162 456.827 510.594 457.127 511.868 457.675C513.245 458.267 514.413 459.057 515.341 460.022C516.332 461.053 517.23 462.333 518.011 463.827C518.83 465.392 519.491 467.018 519.974 468.658C520.478 470.373 520.903 472.263 521.235 474.276C521.572 476.32 521.8 478.241 521.911 479.986V479.988C522.026 481.763 522.084 483.618 522.084 485.503C522.084 489.117 521.144 491.846 519.212 493.845Z"
                fill="#404040" />
        </g>
        <g clip-path="url(#clip9_323_214)">
            <path
                d="M676.059 456.48C681.448 456.48 686.113 454.379 689.927 450.234C693.739 446.09 695.672 441.02 695.672 435.162C695.672 429.306 693.739 424.234 689.926 420.089C686.113 415.945 681.447 413.845 676.059 413.845C670.67 413.845 666.005 415.945 662.192 420.09C658.38 424.234 656.446 429.305 656.446 435.162C656.446 441.02 658.38 446.091 662.192 450.235C666.006 454.379 670.672 456.48 676.059 456.48ZM665.567 423.757C668.492 420.577 671.924 419.031 676.059 419.031C680.194 419.031 683.626 420.577 686.552 423.757C689.478 426.938 690.9 430.668 690.9 435.162C690.9 439.656 689.478 443.386 686.552 446.567C683.626 449.748 680.194 451.293 676.059 451.293C671.925 451.293 668.494 449.747 665.567 446.567C662.641 443.387 661.218 439.656 661.218 435.162C661.218 430.668 662.641 426.938 665.567 423.757Z"
                fill="#404040" />
            <path
                d="M710.377 481.904C710.267 480.179 710.044 478.298 709.717 476.311C709.386 474.31 708.961 472.418 708.451 470.688C707.925 468.901 707.209 467.136 706.324 465.444C705.407 463.688 704.328 462.16 703.118 460.902C701.852 459.586 700.303 458.527 698.511 457.756C696.726 456.988 694.747 456.599 692.631 456.599C691.799 456.599 690.995 456.97 689.443 458.068C688.487 458.746 687.37 459.529 686.122 460.395C685.056 461.134 683.611 461.826 681.826 462.453C680.084 463.065 678.316 463.376 676.571 463.376C674.826 463.376 673.058 463.065 671.315 462.453C669.532 461.827 668.087 461.135 667.022 460.396C665.786 459.538 664.668 458.754 663.698 458.068C662.147 456.969 661.343 456.598 660.512 456.598C658.395 456.598 656.417 456.988 654.632 457.756C652.841 458.527 651.291 459.585 650.025 460.902C648.814 462.161 647.736 463.689 646.819 465.444C645.935 467.136 645.219 468.9 644.692 470.689C644.184 472.418 643.758 474.31 643.428 476.311C643.099 478.295 642.878 480.177 642.768 481.906C642.66 483.596 642.605 485.355 642.605 487.133C642.605 491.753 643.956 495.493 646.621 498.252C649.252 500.974 652.734 502.354 656.969 502.354H696.177C700.411 502.354 703.893 500.974 706.525 498.252C709.19 495.495 710.541 491.753 710.541 487.132C710.541 485.348 710.485 483.589 710.377 481.904ZM703.235 494.494C701.496 496.293 699.187 497.167 696.177 497.167H656.969C653.958 497.167 651.649 496.293 649.911 494.494C648.206 492.73 647.377 490.321 647.377 487.133C647.377 485.474 647.427 483.837 647.528 482.265C647.626 480.722 647.827 479.028 648.124 477.228C648.418 475.45 648.792 473.781 649.237 472.271C649.664 470.822 650.246 469.388 650.968 468.006C651.657 466.689 652.449 465.56 653.324 464.649C654.142 463.798 655.174 463.101 656.389 462.578C657.513 462.095 658.776 461.83 660.147 461.79C660.314 461.887 660.611 462.071 661.093 462.413C662.074 463.108 663.205 463.901 664.455 464.768C665.864 465.745 667.679 466.627 669.848 467.388C672.065 468.167 674.327 468.563 676.571 468.563C678.816 468.563 681.078 468.167 683.294 467.388C685.464 466.626 687.279 465.745 688.69 464.767C689.969 463.878 691.068 463.108 692.049 462.413C692.531 462.072 692.829 461.887 692.996 461.79C694.368 461.83 695.631 462.095 696.755 462.578C697.97 463.101 699.001 463.799 699.819 464.649C700.694 465.559 701.486 466.689 702.175 468.007C702.898 469.388 703.481 470.823 703.907 472.27C704.352 473.782 704.727 475.45 705.02 477.227C705.317 479.031 705.518 480.726 705.617 482.265V482.267C705.718 483.833 705.769 485.469 705.769 487.133C705.769 490.322 704.94 492.73 703.235 494.494Z"
                fill="#404040" />
        </g>
        <g clip-path="url(#clip10_323_214)">
            <path
                d="M686.318 293.211C692.062 293.412 697.114 291.346 701.333 287.07C705.551 282.794 707.801 277.46 708.019 271.216C708.237 264.973 706.365 259.495 702.455 254.934C698.544 250.375 693.649 247.962 687.905 247.761C682.16 247.561 677.108 249.627 672.89 253.902C668.671 258.178 666.422 263.512 666.204 269.755C665.985 276 667.858 281.478 671.768 286.038C675.679 290.597 680.574 293.011 686.318 293.211ZM676.351 257.937C679.588 254.657 683.304 253.137 687.712 253.291C692.119 253.444 695.72 255.22 698.721 258.719C701.722 262.218 703.099 266.248 702.932 271.038C702.765 275.829 701.109 279.753 697.872 283.034C694.635 286.316 690.918 287.836 686.511 287.682C682.104 287.528 678.503 285.752 675.502 282.253C672.501 278.755 671.123 274.724 671.29 269.933C671.458 265.143 673.113 261.219 676.351 257.937Z"
                fill="#404040" />
            <path
                d="M721.954 321.591C721.901 319.748 721.734 317.735 721.459 315.605C721.181 313.459 720.798 311.426 720.319 309.563C719.824 307.638 719.128 305.73 718.247 303.894C717.334 301.988 716.241 300.318 714.998 298.932C713.698 297.482 712.086 296.296 710.204 295.407C708.33 294.522 706.235 294.034 703.978 293.955C703.092 293.924 702.222 294.289 700.526 295.403C699.482 296.089 698.261 296.882 696.899 297.759C695.735 298.507 694.168 299.191 692.242 299.793C690.363 300.381 688.467 300.646 686.606 300.581C684.746 300.516 682.873 300.119 681.038 299.402C679.161 298.668 677.646 297.876 676.538 297.049C675.253 296.088 674.09 295.212 673.082 294.443C671.469 293.214 670.626 292.789 669.739 292.758C667.482 292.68 665.359 293.021 663.428 293.774C661.491 294.529 659.799 295.599 658.4 296.956C657.063 298.253 655.856 299.842 654.813 301.679C653.808 303.449 652.979 305.303 652.351 307.191C651.744 309.015 651.22 311.016 650.793 313.137C650.37 315.24 650.063 317.238 649.882 319.076C649.704 320.874 649.58 322.747 649.514 324.642C649.342 329.567 650.643 333.605 653.381 336.645C656.085 339.644 659.745 341.245 664.259 341.403L706.056 342.862C710.569 343.02 714.332 341.678 717.239 338.875C720.183 336.035 721.763 332.097 721.935 327.17C722.001 325.269 722.007 323.392 721.954 321.591ZM713.872 334.746C711.951 336.599 709.458 337.445 706.248 337.333L664.452 335.874C661.242 335.762 658.814 334.743 657.028 332.762C655.276 330.817 654.482 328.219 654.601 324.82C654.662 323.052 654.777 321.308 654.943 319.636C655.105 317.995 655.382 316.197 655.766 314.289C656.145 312.404 656.606 310.639 657.137 309.046C657.646 307.517 658.319 306.01 659.14 304.564C659.924 303.186 660.811 302.011 661.777 301.074C662.681 300.196 663.807 299.492 665.121 298.98C666.337 298.506 667.694 298.271 669.157 298.28C669.331 298.389 669.642 298.596 670.143 298.979C671.163 299.756 672.339 300.643 673.639 301.615C675.104 302.708 677.007 303.716 679.29 304.608C681.625 305.521 684.021 306.027 686.414 306.111C688.806 306.194 691.232 305.856 693.624 305.109C695.966 304.377 697.933 303.505 699.474 302.515C700.87 301.616 702.071 300.836 703.142 300.131C703.669 299.785 703.993 299.599 704.175 299.503C705.635 299.596 706.972 299.925 708.153 300.483C709.428 301.085 710.501 301.867 711.342 302.804C712.24 303.807 713.043 305.04 713.729 306.471C714.448 307.97 715.015 309.522 715.416 311.08C715.834 312.709 716.172 314.501 716.418 316.406C716.668 318.34 716.819 320.154 716.866 321.799L716.866 321.8C716.916 323.474 716.909 325.22 716.848 326.993C716.729 330.393 715.756 332.929 713.872 334.746Z"
                fill="#404040" />
        </g>
        <g clip-path="url(#clip11_323_214)">
            <path
                d="M480.53 624.667V613.501C480.53 613.181 480.382 612.886 480.173 612.652L467.654 599.505C467.42 599.26 467.088 599.124 466.756 599.124H446.907C443.242 599.124 440.315 602.112 440.315 605.777V643.311C440.315 646.976 443.242 649.915 446.907 649.915H462.575C465.538 654.834 470.925 658.13 477.061 658.13C486.383 658.13 493.996 650.555 493.996 641.221C494.009 633.067 488.154 626.254 480.53 624.667ZM467.986 603.441L476.385 612.283H470.937C469.314 612.283 467.986 610.943 467.986 609.319V603.441ZM446.907 647.456C444.607 647.456 442.775 645.611 442.775 643.311V605.777C442.775 603.465 444.607 601.584 446.907 601.584H465.526V609.319C465.526 612.308 467.949 614.743 470.937 614.743H478.07V624.347C477.701 624.335 477.406 624.298 477.086 624.298C472.794 624.298 468.847 625.946 465.87 628.529H450.252C449.575 628.529 449.022 629.082 449.022 629.758C449.022 630.435 449.575 630.988 450.252 630.988H463.583C462.71 632.218 461.984 633.448 461.419 634.801H450.252C449.575 634.801 449.022 635.354 449.022 636.031C449.022 636.707 449.575 637.261 450.252 637.261H460.619C460.312 638.491 460.152 639.856 460.152 641.221C460.152 643.434 460.582 645.623 461.357 647.468H446.907V647.456ZM477.074 655.683C469.105 655.683 462.624 649.202 462.624 641.233C462.624 633.264 469.092 626.782 477.074 626.782C485.055 626.782 491.524 633.264 491.524 641.233C491.524 649.202 485.043 655.683 477.074 655.683Z"
                fill="#404040" />
            <path
                d="M450.252 624.827H462.71C463.386 624.827 463.94 624.273 463.94 623.597C463.94 622.92 463.386 622.367 462.71 622.367H450.252C449.575 622.367 449.022 622.92 449.022 623.597C449.022 624.273 449.575 624.827 450.252 624.827Z"
                fill="#404040" />
            <path
                d="M477.947 632.157C477.713 631.911 477.394 631.763 477.049 631.763C476.705 631.763 476.385 631.911 476.152 632.157L468.945 639.892C468.477 640.384 468.514 641.171 469.006 641.626C469.498 642.094 470.297 642.057 470.765 641.565L475.856 636.117V649.546C475.856 650.223 476.41 650.776 477.086 650.776C477.762 650.776 478.316 650.223 478.316 649.546V636.117L483.37 641.565C483.616 641.823 483.936 641.958 484.268 641.958C484.563 641.958 484.859 641.848 485.104 641.626C485.596 641.159 485.633 640.384 485.166 639.892L477.947 632.157Z"
                fill="#404040" />
        </g>
        <line x1="521.453" y1="615.187" x2="705.552" y2="615.187" stroke="#909090"
            stroke-width="8" />
        <line x1="521.453" y1="654.13" x2="705.552" y2="654.13" stroke="#909090" stroke-width="8" />
        <line x1="437.665" y1="696.615" x2="621.764" y2="696.615" stroke="#909090"
            stroke-width="8" />
        <line x1="437.665" y1="737.919" x2="621.764" y2="737.919" stroke="#909090"
            stroke-width="8" />
        <g clip-path="url(#clip12_323_214)">
            <path
                d="M679.407 715.554C681.646 715.554 683.461 713.739 683.461 711.5C683.461 709.261 681.646 707.446 679.407 707.446C677.168 707.446 675.354 709.261 675.354 711.5C675.354 713.739 677.168 715.554 679.407 715.554Z"
                fill="#404040" />
            <path
                d="M712.683 726.42C710.769 724.618 708.347 723.436 705.701 723.098V702.491C705.701 700.295 704.8 698.325 703.393 696.861C701.929 695.397 699.958 694.552 697.762 694.552H665.106C662.91 694.552 660.94 695.453 659.476 696.861C658.012 698.325 657.167 700.295 657.167 702.491V728.447V730.868V736.104C657.167 738.3 658.068 740.271 659.476 741.735C660.94 743.199 662.91 744.043 665.106 744.043H696.693C698.776 745.732 701.366 746.802 704.237 746.802C707.559 746.802 710.543 745.451 712.683 743.311C714.822 741.172 716.174 738.188 716.174 734.866C716.174 731.544 714.822 728.56 712.683 726.42ZM660.152 702.491C660.152 701.14 660.715 699.901 661.615 699.057C662.516 698.156 663.755 697.593 665.106 697.593H697.762C699.114 697.593 700.352 698.156 701.253 699.057C702.154 699.957 702.717 701.196 702.717 702.547V720.114L694.384 711.781C693.821 711.218 692.864 711.162 692.245 711.781L679.689 724.393L671.187 715.835C670.624 715.272 669.667 715.216 669.048 715.835L660.152 724.844V702.491ZM665.05 741.172V741.059C663.699 741.059 662.46 740.496 661.559 739.595C660.715 738.694 660.152 737.456 660.152 736.104V730.868V729.123L670.117 719.101L678.619 727.602C679.182 728.166 680.139 728.166 680.759 727.602L693.314 714.99L701.535 723.267C701.366 723.323 701.197 723.38 701.028 723.436C700.803 723.492 700.578 723.549 700.296 723.661C700.071 723.718 699.846 723.83 699.62 723.886C699.452 723.943 699.339 723.999 699.17 724.112C698.945 724.224 698.776 724.281 698.607 724.393C698.325 724.562 698.044 724.731 697.762 724.9C697.593 725.013 697.481 725.069 697.312 725.181C697.199 725.238 697.143 725.294 697.03 725.35C696.524 725.688 696.073 726.082 695.679 726.533C693.54 728.672 692.188 731.656 692.188 734.978C692.188 735.823 692.301 736.611 692.47 737.456C692.526 737.681 692.582 737.85 692.639 738.075C692.808 738.638 692.977 739.201 693.202 739.764V739.82C693.427 740.271 693.652 740.778 693.934 741.172H665.05ZM710.487 741.172C708.854 742.804 706.658 743.762 704.181 743.762C701.816 743.762 699.62 742.804 698.044 741.284C697.819 741.059 697.593 740.778 697.368 740.552C697.199 740.383 697.03 740.158 696.862 739.989C696.636 739.708 696.467 739.37 696.299 739.032C696.186 738.807 696.073 738.638 695.961 738.413C695.848 738.131 695.735 737.793 695.679 737.456C695.623 737.23 695.51 736.949 695.454 736.724C695.341 736.161 695.285 735.541 695.285 734.922C695.285 732.445 696.299 730.249 697.875 728.616C699.452 726.983 701.704 726.026 704.181 726.026C706.658 726.026 708.854 727.039 710.487 728.616C712.12 730.249 713.077 732.445 713.077 734.922C713.077 737.343 712.064 739.539 710.487 741.172Z"
                fill="#404040" />
            <path
                d="M705.251 728.841C705.138 728.728 704.969 728.616 704.744 728.503C704.575 728.447 704.406 728.391 704.237 728.391C704.181 728.391 704.181 728.391 704.181 728.391C704.125 728.391 704.125 728.391 704.125 728.391C703.956 728.391 703.787 728.447 703.618 728.503C703.449 728.56 703.28 728.672 703.111 728.841L699.621 732.332C699.057 732.895 699.057 733.852 699.621 734.471C700.184 735.034 701.141 735.034 701.76 734.471L702.661 733.571V739.764C702.661 740.609 703.337 741.284 704.181 741.284C705.026 741.284 705.701 740.609 705.701 739.764V733.571L706.602 734.471C707.165 735.034 708.122 735.034 708.742 734.471C709.305 733.908 709.305 732.951 708.742 732.332L705.251 728.841Z"
                fill="#404040" />
        </g>
    </g>
    <g class="tab-screens" id="cloud" style="--order: 4" filter="url(#filter4_bd_323_214)">
        <path
            d="M395 107.086C395 94.906 405.795 85.5542 417.85 87.29L755.497 135.904C765.34 137.322 772.647 145.756 772.647 155.7V734.147C772.647 745.364 763.425 754.387 752.211 754.143L414.564 746.78C403.691 746.542 395 737.66 395 726.784V107.086Z"
            fill="#F9FEFF" fill-opacity="0.6" />
        <path
            d="M397 97.8513C397 91.7614 402.397 87.0855 408.425 87.9533L764.425 139.204C769.347 139.913 773 144.13 773 149.102V185.633C773 191.668 767.695 196.327 761.711 195.549L405.711 149.258C400.728 148.61 397 144.366 397 139.342V97.8513Z"
            stroke="black" stroke-width="4" />
        <path d="M694.818 170.902V143.416L716.678 147.037V173.488L694.818 170.902Z" stroke="black"
            stroke-width="3" />
        <line y1="-2" x2="30.5611" y2="-2"
            transform="matrix(0.464827 0.885402 -0.887758 0.46031 738.302 153.412)" stroke="black"
            stroke-width="4" />
        <line y1="-2" x2="28.5476" y2="-2"
            transform="matrix(-0.622014 0.783006 -0.78675 -0.617272 752.508 153.412)" stroke="black"
            stroke-width="4" />
        <line x1="439.616" y1="106.353" x2="439.616" y2="136.941" stroke="black" stroke-width="4" />
        <line y1="-2" x2="28.4079" y2="-2"
            transform="matrix(0.990735 0.135807 -0.137473 0.990506 425.778 121.647)" stroke="black"
            stroke-width="4" />
        <line y1="-2" x2="30.7753" y2="-2"
            transform="matrix(0.990735 0.135807 -0.137473 0.990506 642.415 153.412)" stroke="black"
            stroke-width="4" />
        <path
            d="M461.569 123.412C461.569 129.599 459.626 134.953 456.161 138.743C452.71 142.517 447.649 144.853 441.169 144.853C434.812 144.853 428.521 141.584 423.784 136.657C419.043 131.727 416.033 125.318 416.033 119.294C416.033 107.209 425.224 98.4414 438.209 98.4414C444.567 98.4414 450.399 101.563 454.673 106.308C458.953 111.058 461.569 117.327 461.569 123.412Z"
            stroke="black" stroke-width="3" />
        <path
            d="M397 489.967C397 488.824 397.957 487.913 399.099 487.969L768.746 506.201C769.811 506.253 770.647 507.132 770.647 508.198V576.769C770.647 577.901 769.708 578.808 768.576 578.768L398.929 565.667C397.853 565.629 397 564.746 397 563.669V489.967Z"
            stroke="black" stroke-width="4" />
        <line y1="-3" x2="47.0588" y2="-3"
            transform="matrix(0.999391 0.0348995 -0.0761293 0.997098 456.176 534.588)"
            stroke="#404040" stroke-width="6" />
        <line y1="-3" x2="47.0588" y2="-3"
            transform="matrix(0.999391 0.0348995 -0.0761293 0.997098 584.413 539.294)"
            stroke="#404040" stroke-width="6" />
        <line y1="-3" x2="47.0588" y2="-3"
            transform="matrix(0.999391 0.0348995 -0.0761293 0.997098 697.353 546.353)"
            stroke="#404040" stroke-width="6" />
        <path d="M542.059 495.765V567.529" stroke="black" stroke-width="4" />
        <line x1="660.529" y1="500.471" x2="660.529" y2="573.412" stroke="black" stroke-width="4" />
        <rect x="418.854" y="516.088" width="7.58823" height="24.0588" stroke="#404040"
            stroke-width="3" />
        <rect x="561.206" y="521.971" width="7.58823" height="24.0588" stroke="#404040"
            stroke-width="3" />
        <rect x="675.323" y="527.853" width="7.58823" height="24.0588" stroke="#404040"
            stroke-width="3" />
        <path
            d="M397 581.074C397 579.944 397.936 579.038 399.065 579.075L768.712 591.166C769.791 591.202 770.647 592.086 770.647 593.165V668.003C770.647 669.124 769.725 670.026 768.604 670.002L398.957 662.084C397.87 662.061 397 661.172 397 660.085V581.074Z"
            stroke="black" stroke-width="4" />
        <line y1="-3" x2="47.0588" y2="-3"
            transform="matrix(0.999391 0.0348995 -0.0761293 0.997098 456.176 625.765)"
            stroke="#404040" stroke-width="6" />
        <line y1="-3" x2="47.0588" y2="-3"
            transform="matrix(0.999391 0.0348995 -0.0761293 0.997098 584.413 630.471)"
            stroke="#404040" stroke-width="6" />
        <line y1="-3" x2="47.0588" y2="-3"
            transform="matrix(0.999391 0.0348995 -0.0761293 0.997098 697.353 637.529)"
            stroke="#404040" stroke-width="6" />
        <path d="M542.059 584V662.824" stroke="black" stroke-width="4" />
        <path d="M660.882 588.118V669.294" stroke="black" stroke-width="4" />
        <rect x="418.854" y="607.265" width="7.58823" height="24.0588" stroke="#404040"
            stroke-width="3" />
        <rect x="561.206" y="613.147" width="7.58823" height="24.0588" stroke="#404040"
            stroke-width="3" />
        <rect x="675.323" y="619.029" width="7.58823" height="24.0588" stroke="#404040"
            stroke-width="3" />
        <path
            d="M397 675.731C397 674.61 397.921 673.708 399.042 673.731L768.689 681.422C769.777 681.445 770.647 682.333 770.647 683.422V750.513C770.647 751.632 769.729 752.533 768.61 752.512L398.963 745.603C397.873 745.583 397 744.693 397 743.603V675.731Z"
            stroke="black" stroke-width="4" />
        <line y1="-3" x2="47.0588" y2="-3"
            transform="matrix(0.999391 0.0348995 -0.0761293 0.997098 456.176 715.764)"
            stroke="#404040" stroke-width="6" />
        <line y1="-3" x2="47.0588" y2="-3"
            transform="matrix(0.999391 0.0348995 -0.0761293 0.997098 584.413 720.47)"
            stroke="#404040" stroke-width="6" />
        <line y1="-3" x2="47.0588" y2="-3"
            transform="matrix(0.999391 0.0348995 -0.0761293 0.997098 697.353 727.529)"
            stroke="#404040" stroke-width="6" />
        <path d="M542.059 676.941V748.706" stroke="black" stroke-width="4" />
        <path d="M660.882 681.646V751.646" stroke="black" stroke-width="4" />
        <rect x="418.854" y="697.264" width="7.58823" height="24.0588" stroke="#404040"
            stroke-width="3" />
        <rect x="561.206" y="703.146" width="7.58823" height="24.0588" stroke="#404040"
            stroke-width="3" />
        <rect x="675.323" y="709.029" width="7.58823" height="24.0588" stroke="#404040"
            stroke-width="3" />
        <g clip-path="url(#clip13_323_214)">
            <path
                d="M631.847 339.858L533.512 332.982C526.345 332.481 519.777 329.014 515.017 323.219C510.22 317.379 507.875 309.916 508.415 302.204C508.954 294.492 512.315 287.428 517.878 282.312C522.235 278.306 527.505 275.893 533.057 275.3C533.064 275.169 533.072 275.038 533.081 274.906C534.566 253.672 551.815 237.519 571.532 238.898C578.844 239.409 585.705 242.271 591.374 247.174C595.364 250.626 598.577 254.915 600.849 259.782C605.24 257.273 610.184 256.112 615.22 256.464C628.596 257.399 638.974 268.775 640.011 282.724C645.551 284.04 650.551 287.195 654.381 291.858C659.177 297.697 661.522 305.161 660.983 312.873C660.444 320.585 657.083 327.649 651.52 332.764C646 337.84 639.013 340.359 631.847 339.858ZM536.878 284.846C526.855 284.145 518.097 292.212 517.354 302.829C516.612 313.446 524.162 322.654 534.185 323.355L632.52 330.231C642.543 330.932 651.301 322.865 652.044 312.248C652.786 301.631 645.236 292.423 635.213 291.722L630.743 291.41L631.08 286.596C631.822 275.979 624.406 266.781 614.547 266.091C609.849 265.763 605.267 267.416 601.646 270.746L596.479 275.499L594.474 268.571C591.172 257.166 581.903 249.297 570.859 248.525C556.071 247.491 543.134 259.606 542.021 275.531C541.941 276.668 542.021 277.901 542.106 279.206L542.489 285.238L536.878 284.846Z"
                fill="black" />
        </g>
        <g clip-path="url(#clip14_323_214)">
            <path
                d="M684.676 462.838L655.425 465.912C652.066 466.265 649.044 463.82 648.69 460.459L644.848 423.896C644.494 420.534 646.942 417.514 650.301 417.161L679.552 414.087C682.911 413.734 685.933 416.179 686.286 419.54L690.129 456.104C690.482 459.465 688.034 462.485 684.676 462.838ZM650.557 419.599C648.541 419.811 647.073 421.624 647.285 423.639L651.128 460.203C651.34 462.219 653.153 463.687 655.169 463.475L684.419 460.4C686.435 460.189 687.903 458.376 687.691 456.36L683.848 419.796C683.637 417.781 681.824 416.313 679.808 416.524L650.557 419.599Z"
                fill="#404040" />
            <path
                d="M644.906 459.624L642.468 459.881C639.109 460.234 636.087 457.789 635.734 454.427L631.635 415.426C631.281 412.065 633.729 409.045 637.088 408.692L666.339 405.618C669.698 405.265 672.72 407.71 673.073 411.071C673.144 411.744 672.655 412.347 671.982 412.418C671.31 412.489 670.706 412 670.635 411.327C670.424 409.311 668.611 407.843 666.595 408.055L637.344 411.13C635.328 411.341 633.86 413.154 634.072 415.17L638.171 454.171C638.383 456.187 640.196 457.655 642.212 457.443L644.65 457.187C645.322 457.116 645.926 457.605 645.996 458.278C646.067 458.95 645.578 459.554 644.906 459.624Z"
                fill="#404040" />
            <path
                d="M678.007 446.288L658.506 448.337C657.833 448.408 657.23 447.919 657.159 447.247C657.089 446.574 657.577 445.97 658.25 445.9L677.75 443.85C678.423 443.779 679.027 444.268 679.097 444.941C679.168 445.614 678.679 446.217 678.007 446.288Z"
                fill="#404040" />
            <path
                d="M679.032 456.038L659.531 458.087C658.858 458.158 658.255 457.669 658.184 456.997C658.114 456.324 658.602 455.72 659.275 455.65L678.775 453.6C679.448 453.529 680.052 454.018 680.122 454.691C680.193 455.364 679.704 455.967 679.032 456.038Z"
                fill="#404040" />
            <path
                d="M676.982 436.537L657.482 438.587C656.809 438.658 656.206 438.169 656.135 437.496C656.064 436.823 656.553 436.22 657.226 436.149L676.726 434.1C677.399 434.029 678.002 434.518 678.073 435.19C678.144 435.863 677.655 436.467 676.982 436.537Z"
                fill="#404040" />
            <path
                d="M675.957 426.787L656.457 428.837C655.784 428.908 655.181 428.419 655.11 427.746C655.039 427.073 655.528 426.47 656.201 426.399L675.701 424.35C676.374 424.279 676.977 424.768 677.048 425.44C677.119 426.113 676.63 426.717 675.957 426.787Z"
                fill="#404040" />
        </g>
        <g clip-path="url(#clip15_323_214)">
            <path
                d="M526.66 362.793L521.711 362.447L522.057 357.498C522.166 355.942 520.982 354.581 519.427 354.472L483.37 351.951C481.815 351.842 480.453 353.025 480.345 354.581L477.181 399.828C477.072 401.384 478.255 402.745 479.811 402.854L484.76 403.2L484.414 408.149C484.305 409.704 485.488 411.066 487.044 411.175L511.081 412.856C512.636 412.964 514.897 412.246 516.103 411.259L524.523 404.376C525.731 403.39 526.807 401.309 526.916 399.754L529.29 365.819C529.399 364.263 528.215 362.901 526.66 362.793ZM487.578 362.902L484.908 401.079L479.959 400.733C479.576 400.706 479.275 400.36 479.302 399.977L482.466 354.729C482.492 354.346 482.839 354.045 483.222 354.072L519.279 356.593C519.662 356.62 519.964 356.966 519.937 357.349L519.591 362.298L490.603 360.271C489.047 360.163 487.686 361.346 487.578 362.902ZM523.177 402.73L514.758 409.613C514.585 409.754 514.364 409.888 514.121 410.014L514.576 403.509C514.61 403.023 514.837 402.6 515.182 402.297C515.531 401.997 515.982 401.831 516.467 401.865L523.541 402.36C523.421 402.501 523.299 402.63 523.177 402.73ZM524.795 399.605C524.78 399.815 524.725 400.056 524.649 400.306L516.616 399.744C514.47 399.598 512.61 401.215 512.455 403.36L511.942 410.698C511.686 410.732 511.441 410.749 511.229 410.734L487.192 409.053L487.192 409.054C486.808 409.027 486.508 408.68 486.535 408.297L489.699 363.05C489.726 362.667 490.071 362.366 490.455 362.392L526.511 364.914C526.895 364.941 527.196 365.287 527.169 365.67L524.795 399.605Z"
                fill="#404040" />
            <path
                d="M526.659 362.793L521.71 362.447L522.057 357.498C522.165 355.942 520.982 354.581 519.427 354.472L483.37 351.951C481.815 351.842 480.453 353.025 480.344 354.581L477.18 399.828C477.071 401.384 478.255 402.745 479.81 402.854L484.759 403.2L484.413 408.149C484.305 409.704 485.488 411.066 487.044 411.175L511.081 412.856C512.635 412.964 514.896 412.246 516.103 411.259L524.523 404.376C525.73 403.39 526.807 401.309 526.915 399.754L529.29 365.819C529.398 364.263 528.215 362.901 526.659 362.793ZM487.577 362.902L484.908 401.079L479.959 400.733C479.576 400.706 479.274 400.36 479.301 399.977L482.465 354.729C482.492 354.346 482.838 354.045 483.222 354.072L519.279 356.593C519.661 356.62 519.963 356.966 519.936 357.349L519.59 362.298L490.603 360.271C489.047 360.163 487.686 361.346 487.577 362.902ZM523.177 402.73L514.757 409.613C514.585 409.754 514.363 409.888 514.121 410.014L514.576 403.509C514.61 403.023 514.836 402.6 515.182 402.297C515.531 401.997 515.981 401.831 516.467 401.865L523.54 402.36C523.42 402.501 523.298 402.63 523.177 402.73ZM524.794 399.605C524.78 399.815 524.724 400.056 524.649 400.306L516.615 399.744C514.469 399.598 512.609 401.215 512.455 403.36L511.942 410.698C511.686 410.732 511.44 410.749 511.229 410.734L487.192 409.053L487.192 409.054C486.808 409.027 486.507 408.68 486.534 408.297L489.698 363.05C489.725 362.667 490.071 362.366 490.455 362.392L526.511 364.914C526.894 364.941 527.195 365.287 527.168 365.67L524.794 399.605Z"
                fill="#404040" />
            <path
                d="M518.192 372.147L497.689 370.713C497.103 370.672 496.595 371.114 496.554 371.7C496.513 372.286 496.955 372.793 497.541 372.834L518.043 374.268C518.629 374.309 519.137 373.868 519.178 373.282C519.219 372.696 518.777 372.188 518.192 372.147Z"
                fill="#404040" />
            <path
                d="M517.203 386.287L496.7 384.853C496.114 384.812 495.606 385.253 495.565 385.839C495.525 386.425 495.966 386.933 496.552 386.974L517.054 388.408C517.64 388.449 518.148 388.007 518.189 387.421C518.23 386.835 517.788 386.328 517.203 386.287Z"
                fill="#404040" />
            <path
                d="M507.518 392.714L496.206 391.923C495.62 391.882 495.112 392.323 495.071 392.909C495.03 393.495 495.472 394.003 496.058 394.044L507.369 394.835C507.955 394.876 508.462 394.434 508.503 393.848C508.544 393.262 508.103 392.755 507.518 392.714Z"
                fill="#404040" />
            <path
                d="M517.697 379.217L497.194 377.783C496.608 377.742 496.101 378.183 496.06 378.769C496.019 379.356 496.46 379.863 497.046 379.904L517.549 381.338C518.134 381.379 518.642 380.938 518.683 380.351C518.724 379.765 518.282 379.258 517.697 379.217Z"
                fill="#404040" />
        </g>
    </g>
    <defs>
        <filter id="filter0_f_323_214" x="0" y="802.761" width="670.555" height="95.2393"
            filterUnits="userSpaceOnUse" color-interpolation-filters="sRGB">
            <feFlood flood-opacity="0" result="BackgroundImageFix" />
            <feBlend mode="normal" in="SourceGraphic" in2="BackgroundImageFix" result="shape" />
            <feGaussianBlur stdDeviation="10" result="effect1_foregroundBlur_323_214" />
        </filter>
        <filter id="filter1_bd_323_214" x="308" y="65.8613" width="480" height="754.805"
            filterUnits="userSpaceOnUse" color-interpolation-filters="sRGB">
            <feFlood flood-opacity="0" result="BackgroundImageFix" />
            <feGaussianBlur in="BackgroundImage" stdDeviation="5" />
            <feComposite in2="SourceAlpha" operator="in" result="effect1_backgroundBlur_323_214" />
            <feColorMatrix in="SourceAlpha" type="matrix"
                values="0 0 0 0 0 0 0 0 0 0 0 0 0 0 0 0 0 0 127 0" result="hardAlpha" />
            <feOffset dx="-60" dy="10" />
            <feGaussianBlur stdDeviation="15" />
            <feComposite in2="hardAlpha" operator="out" />
            <feColorMatrix type="matrix"
                values="0 0 0 0 0.858333 0 0 0 0 0.967803 0 0 0 0 1 0 0 0 0.4 0" />
            <feBlend mode="normal" in2="effect1_backgroundBlur_323_214"
                result="effect2_dropShadow_323_214" />
            <feBlend mode="normal" in="SourceGraphic" in2="effect2_dropShadow_323_214"
                result="shape" />
        </filter>
        <filter id="filter2_bd_323_214" x="305" y="67.8613" width="480" height="741.784"
            filterUnits="userSpaceOnUse" color-interpolation-filters="sRGB">
            <feFlood flood-opacity="0" result="BackgroundImageFix" />
            <feGaussianBlur in="BackgroundImage" stdDeviation="5" />
            <feComposite in2="SourceAlpha" operator="in" result="effect1_backgroundBlur_323_214" />
            <feColorMatrix in="SourceAlpha" type="matrix"
                values="0 0 0 0 0 0 0 0 0 0 0 0 0 0 0 0 0 0 127 0" result="hardAlpha" />
            <feOffset dx="-60" dy="10" />
            <feGaussianBlur stdDeviation="15" />
            <feComposite in2="hardAlpha" operator="out" />
            <feColorMatrix type="matrix"
                values="0 0 0 0 0.858824 0 0 0 0 0.968627 0 0 0 0 1 0 0 0 0.4 0" />
            <feBlend mode="normal" in2="effect1_backgroundBlur_323_214"
                result="effect2_dropShadow_323_214" />
            <feBlend mode="normal" in="SourceGraphic" in2="effect2_dropShadow_323_214"
                result="shape" />
        </filter>
        <filter id="filter3_bd_323_214" x="304" y="65.8613" width="480" height="739.661"
            filterUnits="userSpaceOnUse" color-interpolation-filters="sRGB">
            <feFlood flood-opacity="0" result="BackgroundImageFix" />
            <feGaussianBlur in="BackgroundImage" stdDeviation="5" />
            <feComposite in2="SourceAlpha" operator="in" result="effect1_backgroundBlur_323_214" />
            <feColorMatrix in="SourceAlpha" type="matrix"
                values="0 0 0 0 0 0 0 0 0 0 0 0 0 0 0 0 0 0 127 0" result="hardAlpha" />
            <feOffset dx="-60" dy="10" />
            <feGaussianBlur stdDeviation="15" />
            <feComposite in2="hardAlpha" operator="out" />
            <feColorMatrix type="matrix"
                values="0 0 0 0 0.858824 0 0 0 0 0.968627 0 0 0 0 1 0 0 0 0.4 0" />
            <feBlend mode="normal" in2="effect1_backgroundBlur_323_214"
                result="effect2_dropShadow_323_214" />
            <feBlend mode="normal" in="SourceGraphic" in2="effect2_dropShadow_323_214"
                result="shape" />
        </filter>
        <filter id="filter4_bd_323_214" x="305" y="65.8491" width="480" height="728.664"
            filterUnits="userSpaceOnUse" color-interpolation-filters="sRGB">
            <feFlood flood-opacity="0" result="BackgroundImageFix" />
            <feGaussianBlur in="BackgroundImage" stdDeviation="5" />
            <feComposite in2="SourceAlpha" operator="in" result="effect1_backgroundBlur_323_214" />
            <feColorMatrix in="SourceAlpha" type="matrix"
                values="0 0 0 0 0 0 0 0 0 0 0 0 0 0 0 0 0 0 127 0" result="hardAlpha" />
            <feOffset dx="-60" dy="10" />
            <feGaussianBlur stdDeviation="15" />
            <feComposite in2="hardAlpha" operator="out" />
            <feColorMatrix type="matrix"
                values="0 0 0 0 0.858824 0 0 0 0 0.968627 0 0 0 0 1 0 0 0 0.4 0" />
            <feBlend mode="normal" in2="effect1_backgroundBlur_323_214"
                result="effect2_dropShadow_323_214" />
            <feBlend mode="normal" in="SourceGraphic" in2="effect2_dropShadow_323_214"
                result="shape" />
        </filter>
        <clipPath id="clip0_323_214">
            <rect width="59.19" height="59.19" fill="white"
                transform="translate(419.309 215.402)" />
        </clipPath>
        <clipPath id="clip1_323_214">
            <rect width="59.19" height="59.19" fill="white"
                transform="translate(419.309 327.863)" />
        </clipPath>
        <clipPath id="clip2_323_214">
            <rect width="59.19" height="59.19" fill="white"
                transform="translate(419.309 440.324)" />
        </clipPath>
        <clipPath id="clip3_323_214">
            <rect width="59.19" height="59.19" fill="white"
                transform="translate(419.309 552.785)" />
        </clipPath>
        <clipPath id="clip4_323_214">
            <rect width="59.19" height="59.19" fill="white"
                transform="translate(419.309 665.246)" />
        </clipPath>
        <clipPath id="clip5_323_214">
            <rect width="35.514" height="35.514" fill="white"
                transform="translate(709.891 239.302)" />
        </clipPath>
        <clipPath id="clip6_323_214">
            <rect width="118.38" height="118.38" fill="white"
                transform="translate(528.77 602.729)" />
        </clipPath>
        <clipPath id="clip7_323_214">
            <rect width="92.2857" height="100.311" fill="white"
                transform="translate(441.166 229.745) rotate(2)" />
        </clipPath>
        <clipPath id="clip8_323_214">
            <rect width="92.2857" height="100.311" fill="white"
                transform="translate(442.928 402.443)" />
        </clipPath>
        <clipPath id="clip9_323_214">
            <rect width="81.4286" height="88.5093" fill="white"
                transform="translate(635.925 413.845)" />
        </clipPath>
        <clipPath id="clip10_323_214">
            <rect width="86.8571" height="94.4099" fill="white"
                transform="translate(645.121 246.267) rotate(2)" />
        </clipPath>
        <clipPath id="clip11_323_214">
            <rect width="59.0062" height="59.0062" fill="white"
                transform="translate(437.665 599.124)" />
        </clipPath>
        <clipPath id="clip12_323_214">
            <rect width="59.0062" height="59.0062" fill="white"
                transform="translate(657.167 691.174)" />
        </clipPath>
        <clipPath id="clip13_323_214">
            <rect width="152.941" height="164.706" fill="white"
                transform="translate(512.512 202.824) rotate(2)" />
        </clipPath>
        <clipPath id="clip14_323_214">
            <rect width="58.8235" height="58.8235" fill="white"
                transform="translate(628.557 409.589) rotate(-6)" />
        </clipPath>
        <clipPath id="clip15_323_214">
            <rect width="58.8235" height="58.8235" fill="white"
                transform="translate(475.947 351.432) rotate(4)" />
        </clipPath>
    </defs>
</svg>