<svg width="14" height="14" viewBox="0 0 14 14" fill="none" xmlns="http://www.w3.org/2000/svg">
<g clip-path="url(#clip0_82_30)">
<path d="M6.99998 0C4.12126 0 1.7793 2.3429 1.7793 5.22276C1.7793 9.51355 6.48033 13.7031 6.68052 13.8794C6.77178 13.9598 6.88586 14.0001 6.99998 14.0001C7.1141 14.0001 7.22817 13.9598 7.31948 13.8794C7.51958 13.7032 12.2207 9.51359 12.2207 5.22276C12.2207 2.3429 9.8787 0 6.99998 0ZM6.99998 12.854C5.96063 11.8469 2.7461 8.46883 2.7461 5.22276C2.7461 2.87603 4.65439 0.966802 6.99998 0.966802C9.34557 0.966802 11.2539 2.87603 11.2539 5.22276C11.2539 8.46878 8.03932 11.8468 6.99998 12.854Z" fill="white"/>
<path d="M6.99997 2.78955C5.66723 2.78955 4.58301 3.88099 4.58301 5.22254C4.58301 6.56413 5.66723 7.65552 6.99997 7.65552C8.3327 7.65552 9.41693 6.56413 9.41693 5.22254C9.41693 3.88099 8.3327 2.78955 6.99997 2.78955ZM6.99997 6.68872C6.20032 6.68872 5.54976 6.031 5.54976 5.22254C5.54976 4.41412 6.20032 3.75635 6.99997 3.75635C7.79962 3.75635 8.45017 4.41407 8.45017 5.22254C8.45017 6.031 7.79962 6.68872 6.99997 6.68872Z" fill="white"/>
</g>
<defs>
<clipPath id="clip0_82_30">
<rect width="14" height="14" fill="white"/>
</clipPath>
</defs>
</svg>
