<svg width="470" height="741" viewBox="0 0 470 741" fill="none" xmlns="http://www.w3.org/2000/svg">
<g filter="url(#filter0_bd_125_323)">
<path d="M90 42.6284C90 30.465 100.767 21.1179 112.81 22.8267L452.81 71.0713C462.671 72.4706 470 80.9128 470 90.873V680.522C470 691.567 461.046 700.522 450 700.522H110C98.9543 700.522 90 691.567 90 680.522V42.6284Z" fill="#F9FEFF" fill-opacity="0.6"/>
<path d="M93.1807 32.8636C93.1807 26.7702 98.5838 22.0933 104.614 22.9669L459.434 74.366C464.352 75.0784 468.001 79.2937 468.001 84.2627V120.98C468.001 127.018 462.69 131.679 456.703 130.895L101.883 84.4703C96.9044 83.8188 93.1807 79.5761 93.1807 74.5548V32.8636Z" stroke="black" stroke-width="4"/>
<path d="M390.071 106.177V78.5969L411.854 82.2273V108.771L390.071 106.177Z" stroke="black" stroke-width="3"/>
<line x1="435.189" y1="87.7021" x2="449.351" y2="114.845" stroke="black" stroke-width="4"/>
<line x1="449.148" y1="89.8665" x2="431.446" y2="112.289" stroke="black" stroke-width="4"/>
<line x1="135.664" y1="41.4224" x2="135.664" y2="72.1056" stroke="black" stroke-width="4"/>
<line x1="122.137" y1="54.7827" x2="150.194" y2="58.6527" stroke="black" stroke-width="4"/>
<line x1="338.099" y1="86.646" x2="368.495" y2="90.8384" stroke="black" stroke-width="4"/>
<path d="M157.537 58.5342C157.537 64.7442 155.599 70.1172 152.144 73.9199C148.704 77.7056 143.661 80.0467 137.205 80.0467C130.873 80.0467 124.604 76.7697 119.881 71.8272C115.155 66.882 112.152 60.4506 112.152 54.4038C112.152 42.2699 121.321 33.4814 134.255 33.4814C140.588 33.4814 146.4 36.6106 150.661 41.3702C154.928 46.1354 157.537 52.426 157.537 58.5342Z" stroke="black" stroke-width="3"/>
<path d="M93.1807 497.937C93.1807 492.35 97.7584 487.847 103.345 487.939L455.937 493.719C461.351 493.808 465.711 498.19 465.772 503.605L467.863 688.408C467.926 693.975 463.431 698.522 457.864 698.522H103.181C97.6578 698.522 93.1807 694.044 93.1807 688.522V497.937Z" stroke="black" stroke-width="4"/>
<path d="M92 120.4C92 114.418 97.2167 109.775 103.158 110.467L459.158 151.981C464.199 152.568 468 156.839 468 161.913V315.535V467.44C468 473.091 463.321 477.62 457.674 477.435L101.674 465.811C96.2807 465.635 92 461.213 92 455.817V120.4Z" stroke="black" stroke-width="4"/>
<line x1="291.441" y1="135.235" x2="292.622" y2="471.571" stroke="black" stroke-width="4"/>
<path d="M90.1414 296.924L466.46 318.162" stroke="black" stroke-width="4"/>
<g clip-path="url(#clip0_125_323)">
<path d="M180.937 214.623C187.041 214.837 192.408 212.642 196.891 208.098C201.373 203.555 203.763 197.888 203.995 191.253C204.226 184.62 202.238 178.8 198.083 173.954C193.928 169.11 188.726 166.546 182.624 166.333C176.519 166.12 171.153 168.315 166.67 172.858C162.188 177.401 159.798 183.068 159.566 189.702C159.334 196.337 161.324 202.157 165.478 207.002C169.634 211.846 174.835 214.41 180.937 214.623ZM170.347 177.145C173.787 173.659 177.735 172.044 182.418 172.208C187.101 172.371 190.928 174.258 194.116 177.975C197.304 181.693 198.768 185.975 198.59 191.064C198.412 196.155 196.653 200.324 193.214 203.811C189.774 207.297 185.825 208.912 181.142 208.749C176.46 208.585 172.634 206.698 169.445 202.981C166.257 199.263 164.793 194.981 164.971 189.89C165.149 184.801 166.907 180.632 170.347 177.145Z" fill="#404040"/>
<path d="M218.801 244.777C218.745 242.819 218.567 240.679 218.275 238.416C217.98 236.136 217.573 233.976 217.064 231.997C216.538 229.952 215.798 227.924 214.862 225.974C213.892 223.949 212.731 222.174 211.41 220.702C210.029 219.161 208.316 217.901 206.317 216.956C204.325 216.016 202.099 215.497 199.702 215.413C198.761 215.38 197.835 215.768 196.034 216.951C194.925 217.681 193.628 218.524 192.18 219.456C190.943 220.25 189.279 220.977 187.233 221.616C185.236 222.241 183.221 222.523 181.244 222.454C179.268 222.385 177.278 221.963 175.328 221.201C173.333 220.421 171.723 219.58 170.547 218.701C169.181 217.68 167.945 216.749 166.874 215.932C165.161 214.627 164.265 214.175 163.323 214.142C160.925 214.058 158.669 214.421 156.617 215.221C154.559 216.023 152.761 217.16 151.275 218.602C149.854 219.98 148.572 221.668 147.464 223.62C146.396 225.501 145.515 227.471 144.848 229.476C144.203 231.415 143.646 233.54 143.193 235.794C142.743 238.029 142.417 240.151 142.224 242.105C142.035 244.015 141.904 246.005 141.833 248.018C141.651 253.251 143.033 257.541 145.942 260.771C148.815 263.958 152.704 265.659 157.5 265.827L201.91 267.378C206.705 267.545 210.703 266.119 213.792 263.141C216.92 260.124 218.598 255.939 218.781 250.705C218.851 248.685 218.858 246.69 218.801 244.777ZM210.214 258.754C208.173 260.723 205.524 261.622 202.114 261.503L157.706 259.952C154.295 259.833 151.715 258.751 149.817 256.646C147.955 254.58 147.112 251.819 147.238 248.207C147.304 246.329 147.425 244.476 147.602 242.699C147.774 240.956 148.068 239.045 148.476 237.018C148.879 235.016 149.369 233.141 149.933 231.447C150.473 229.824 151.189 228.222 152.062 226.686C152.894 225.222 153.837 223.973 154.863 222.977C155.824 222.045 157.019 221.296 158.416 220.752C159.709 220.249 161.15 219.999 162.704 220.009C162.89 220.125 163.219 220.345 163.752 220.751C164.835 221.577 166.085 222.52 167.466 223.552C169.023 224.714 171.045 225.784 173.471 226.732C175.951 227.702 178.497 228.24 181.039 228.329C183.582 228.418 186.159 228.059 188.7 227.265C191.189 226.487 193.279 225.561 194.916 224.509C196.4 223.553 197.675 222.725 198.814 221.976C199.373 221.608 199.717 221.411 199.911 221.308C201.463 221.407 202.883 221.757 204.137 222.349C205.492 222.989 206.633 223.82 207.526 224.816C208.48 225.881 209.334 227.192 210.062 228.712C210.826 230.305 211.429 231.953 211.854 233.609C212.299 235.34 212.657 237.244 212.919 239.268C213.184 241.322 213.345 243.25 213.395 244.998L213.395 244.999C213.448 246.777 213.441 248.633 213.376 250.517C213.249 254.129 212.215 256.824 210.214 258.754Z" fill="#404040"/>
</g>
<g clip-path="url(#clip1_125_323)">
<path d="M184.413 385.763C190.521 385.763 195.808 383.382 200.13 378.685C204.45 373.988 206.641 368.241 206.641 361.602C206.641 354.966 204.451 349.218 200.129 344.52C195.808 339.824 190.52 337.443 184.413 337.443C178.306 337.443 173.019 339.824 168.698 344.521C164.377 349.217 162.186 354.965 162.186 361.602C162.186 368.241 164.377 373.989 168.698 378.686C173.02 383.381 178.308 385.763 184.413 385.763ZM172.522 348.677C175.838 345.073 179.727 343.321 184.413 343.321C189.099 343.321 192.989 345.073 196.305 348.677C199.621 352.282 201.233 356.51 201.233 361.602C201.233 366.696 199.621 370.924 196.305 374.528C192.989 378.133 189.099 379.885 184.413 379.885C179.729 379.885 175.839 378.132 172.522 374.528C169.206 370.925 167.594 366.696 167.594 361.602C167.594 356.51 169.206 352.282 172.522 348.677Z" fill="#404040"/>
<path d="M223.306 414.577C223.181 412.622 222.929 410.49 222.558 408.239C222.184 405.97 221.701 403.826 221.124 401.866C220.527 399.84 219.716 397.84 218.713 395.922C217.673 393.933 216.451 392.2 215.079 390.774C213.645 389.283 211.889 388.083 209.859 387.209C207.835 386.339 205.593 385.898 203.194 385.898C202.252 385.898 201.341 386.318 199.581 387.563C198.498 388.331 197.232 389.218 195.818 390.2C194.609 391.038 192.971 391.822 190.948 392.532C188.975 393.226 186.971 393.578 184.992 393.578C183.015 393.578 181.012 393.226 179.037 392.532C177.016 391.823 175.377 391.038 174.171 390.201C172.77 389.228 171.503 388.341 170.404 387.562C168.646 386.317 167.735 385.897 166.793 385.897C164.393 385.897 162.151 386.339 160.128 387.209C158.099 388.083 156.343 389.282 154.907 390.775C153.535 392.202 152.313 393.933 151.274 395.922C150.272 397.84 149.461 399.839 148.864 401.867C148.287 403.827 147.805 405.97 147.43 408.239C147.058 410.487 146.807 412.62 146.683 414.579C146.56 416.495 146.498 418.488 146.498 420.503C146.498 425.739 148.029 429.978 151.049 433.104C154.032 436.189 157.977 437.753 162.777 437.753H207.213C212.012 437.753 215.957 436.189 218.941 433.104C221.961 429.98 223.492 425.74 223.492 420.502C223.492 418.481 223.429 416.487 223.306 414.577ZM215.212 428.845C213.241 430.884 210.625 431.875 207.213 431.875H162.777C159.364 431.875 156.748 430.884 154.778 428.846C152.845 426.846 151.906 424.116 151.906 420.503C151.906 418.623 151.963 416.767 152.077 414.986C152.188 413.238 152.416 411.317 152.753 409.277C153.086 407.262 153.51 405.371 154.014 403.659C154.498 402.017 155.158 400.392 155.976 398.826C156.757 397.334 157.655 396.053 158.646 395.022C159.574 394.057 160.742 393.267 162.12 392.675C163.393 392.127 164.825 391.827 166.379 391.781C166.568 391.891 166.905 392.1 167.452 392.487C168.563 393.275 169.845 394.173 171.261 395.156C172.858 396.263 174.916 397.263 177.374 398.125C179.886 399.008 182.449 399.457 184.993 399.457C187.537 399.457 190.101 399.008 192.612 398.126C195.072 397.262 197.129 396.263 198.728 395.155C200.177 394.148 201.423 393.275 202.535 392.487C203.081 392.101 203.418 391.891 203.608 391.781C205.162 391.827 206.594 392.127 207.868 392.675C209.245 393.267 210.413 394.057 211.341 395.022C212.332 396.053 213.23 397.333 214.011 398.827C214.83 400.392 215.491 402.018 215.974 403.658C216.478 405.373 216.903 407.263 217.235 409.276C217.572 411.32 217.8 413.241 217.911 414.986V414.988C218.026 416.763 218.084 418.618 218.084 420.503C218.084 424.117 217.144 426.846 215.212 428.845Z" fill="#404040"/>
</g>
<g clip-path="url(#clip2_125_323)">
<path d="M372.06 391.48C377.449 391.48 382.114 389.379 385.928 385.234C389.74 381.09 391.673 376.02 391.673 370.162C391.673 364.306 389.74 359.234 385.927 355.089C382.114 350.945 377.448 348.845 372.06 348.845C366.671 348.845 362.006 350.945 358.193 355.09C354.381 359.234 352.447 364.305 352.447 370.162C352.447 376.02 354.381 381.091 358.193 385.235C362.007 389.379 366.673 391.48 372.06 391.48ZM361.568 358.757C364.493 355.577 367.925 354.031 372.06 354.031C376.195 354.031 379.627 355.577 382.553 358.757C385.479 361.938 386.901 365.668 386.901 370.162C386.901 374.656 385.479 378.386 382.553 381.567C379.627 384.748 376.195 386.293 372.06 386.293C367.926 386.293 364.495 384.747 361.568 381.567C358.642 378.387 357.219 374.656 357.219 370.162C357.219 365.668 358.642 361.938 361.568 358.757Z" fill="#404040"/>
<path d="M406.377 416.904C406.267 415.179 406.045 413.298 405.717 411.311C405.387 409.31 404.961 407.418 404.452 405.688C403.925 403.901 403.21 402.136 402.325 400.444C401.407 398.688 400.329 397.16 399.118 395.902C397.853 394.586 396.304 393.527 394.512 392.756C392.726 391.988 390.748 391.599 388.631 391.599C387.8 391.599 386.996 391.97 385.443 393.068C384.488 393.746 383.37 394.529 382.123 395.395C381.056 396.134 379.611 396.826 377.826 397.453C376.085 398.065 374.317 398.376 372.571 398.376C370.827 398.376 369.059 398.065 367.316 397.453C365.533 396.827 364.087 396.135 363.022 395.396C361.787 394.538 360.669 393.754 359.699 393.068C358.148 391.969 357.344 391.598 356.512 391.598C354.395 391.598 352.417 391.988 350.632 392.756C348.842 393.527 347.292 394.585 346.025 395.902C344.815 397.161 343.736 398.689 342.819 400.444C341.935 402.136 341.22 403.9 340.693 405.689C340.184 407.418 339.759 409.31 339.428 411.311C339.1 413.295 338.878 415.177 338.768 416.906C338.66 418.596 338.605 420.355 338.605 422.133C338.605 426.753 339.957 430.493 342.621 433.252C345.253 435.974 348.734 437.354 352.969 437.354H392.178C396.412 437.354 399.893 435.974 402.525 433.252C405.19 430.495 406.542 426.753 406.542 422.132C406.541 420.348 406.486 418.589 406.377 416.904ZM399.235 429.494C397.496 431.293 395.188 432.167 392.177 432.167H352.969C349.958 432.167 347.65 431.293 345.911 429.494C344.206 427.73 343.377 425.321 343.377 422.133C343.377 420.474 343.428 418.837 343.528 417.265C343.626 415.722 343.827 414.028 344.125 412.228C344.419 410.45 344.793 408.781 345.237 407.271C345.664 405.822 346.246 404.388 346.968 403.006C347.657 401.689 348.45 400.56 349.325 399.649C350.143 398.798 351.174 398.101 352.389 397.578C353.513 397.095 354.776 396.83 356.147 396.79C356.314 396.887 356.612 397.071 357.094 397.413C358.075 398.108 359.206 398.901 360.455 399.768C361.864 400.745 363.68 401.627 365.849 402.388C368.066 403.167 370.327 403.563 372.572 403.563C374.816 403.563 377.078 403.167 379.294 402.388C381.465 401.626 383.28 400.745 384.69 399.767C385.97 398.878 387.069 398.108 388.05 397.413C388.532 397.072 388.829 396.887 388.996 396.79C390.368 396.83 391.631 397.095 392.756 397.578C393.97 398.101 395.001 398.799 395.82 399.649C396.694 400.559 397.487 401.689 398.176 403.007C398.898 404.388 399.481 405.823 399.907 407.27C400.353 408.782 400.727 410.45 401.021 412.227C401.318 414.031 401.519 415.726 401.617 417.265V417.267C401.718 418.833 401.769 420.469 401.77 422.133C401.769 425.322 400.941 427.73 399.235 429.494Z" fill="#404040"/>
</g>
<g clip-path="url(#clip3_125_323)">
<path d="M382.318 228.211C388.062 228.412 393.114 226.346 397.333 222.069C401.551 217.794 403.801 212.46 404.019 206.215C404.237 199.973 402.365 194.495 398.455 189.934C394.544 185.375 389.649 182.962 383.905 182.761C378.16 182.56 373.108 184.626 368.89 188.902C364.671 193.178 362.422 198.512 362.204 204.755C361.985 211 363.858 216.478 367.768 221.038C371.679 225.597 376.574 228.01 382.318 228.211ZM372.351 192.937C375.588 189.656 379.304 188.136 383.712 188.29C388.119 188.444 391.72 190.22 394.721 193.718C397.722 197.218 399.099 201.248 398.932 206.038C398.765 210.829 397.109 214.753 393.872 218.034C390.635 221.316 386.918 222.836 382.511 222.682C378.104 222.528 374.503 220.752 371.502 217.253C368.501 213.754 367.123 209.724 367.29 204.933C367.458 200.143 369.113 196.219 372.351 192.937Z" fill="#404040"/>
<path d="M417.954 256.591C417.901 254.748 417.734 252.734 417.459 250.604C417.181 248.459 416.798 246.426 416.319 244.563C415.824 242.638 415.128 240.73 414.247 238.894C413.334 236.988 412.241 235.318 410.998 233.932C409.698 232.482 408.086 231.296 406.204 230.407C404.33 229.522 402.235 229.033 399.978 228.955C399.092 228.924 398.222 229.289 396.526 230.402C395.482 231.089 394.261 231.882 392.899 232.759C391.735 233.507 390.168 234.191 388.242 234.793C386.363 235.381 384.467 235.646 382.606 235.581C380.746 235.516 378.873 235.119 377.038 234.401C375.161 233.668 373.646 232.876 372.538 232.049C371.253 231.088 370.09 230.211 369.082 229.443C367.469 228.214 366.626 227.789 365.739 227.758C363.482 227.679 361.359 228.021 359.428 228.774C357.491 229.529 355.799 230.599 354.4 231.956C353.063 233.253 351.856 234.842 350.813 236.678C349.808 238.449 348.979 240.303 348.351 242.19C347.744 244.015 347.22 246.015 346.793 248.137C346.37 250.239 346.063 252.237 345.882 254.076C345.704 255.874 345.58 257.747 345.514 259.642C345.342 264.567 346.643 268.605 349.381 271.644C352.085 274.644 355.745 276.245 360.259 276.403L402.056 277.862C406.569 278.02 410.332 276.678 413.239 273.874C416.183 271.035 417.763 267.097 417.935 262.17C418.001 260.269 418.007 258.392 417.954 256.591ZM409.872 269.746C407.951 271.599 405.458 272.445 402.248 272.333L360.452 270.873C357.242 270.761 354.814 269.743 353.028 267.762C351.276 265.817 350.482 263.219 350.601 259.819C350.662 258.051 350.777 256.308 350.943 254.636C351.105 252.995 351.382 251.196 351.766 249.288C352.145 247.404 352.606 245.639 353.137 244.045C353.646 242.517 354.319 241.01 355.14 239.564C355.924 238.186 356.811 237.011 357.777 236.073C358.681 235.196 359.807 234.492 361.121 233.98C362.337 233.506 363.694 233.271 365.157 233.279C365.331 233.389 365.642 233.596 366.143 233.978C367.163 234.756 368.339 235.643 369.639 236.614C371.104 237.708 373.007 238.715 375.29 239.607C377.625 240.521 380.021 241.027 382.414 241.11C384.806 241.194 387.232 240.856 389.624 240.109C391.966 239.377 393.933 238.505 395.474 237.515C396.87 236.615 398.071 235.836 399.142 235.131C399.669 234.785 399.993 234.599 400.175 234.502C401.635 234.596 402.972 234.925 404.153 235.482C405.428 236.085 406.501 236.867 407.342 237.804C408.24 238.806 409.043 240.04 409.729 241.471C410.448 242.97 411.015 244.521 411.416 246.08C411.834 247.709 412.172 249.501 412.418 251.406C412.668 253.34 412.819 255.154 412.866 256.799L412.866 256.8C412.916 258.473 412.909 260.22 412.848 261.993C412.729 265.393 411.756 267.929 409.872 269.746Z" fill="#404040"/>
</g>
<g clip-path="url(#clip4_125_323)">
<path d="M176.529 559.668V548.501C176.529 548.181 176.382 547.886 176.173 547.652L163.653 534.506C163.419 534.26 163.087 534.124 162.755 534.124H142.906C139.242 534.124 136.314 537.113 136.314 540.778V578.311C136.314 581.976 139.242 584.916 142.906 584.916H158.574C161.538 589.835 166.925 593.13 173.061 593.13C182.383 593.13 189.995 585.555 189.995 576.221C190.008 568.067 184.154 561.254 176.529 559.668ZM163.985 538.441L172.385 547.283H166.937C165.313 547.283 163.985 545.943 163.985 544.32V538.441ZM142.906 582.456C140.606 582.456 138.774 580.611 138.774 578.311V540.778C138.774 538.465 140.606 536.584 142.906 536.584H161.526V544.32C161.526 547.308 163.948 549.743 166.937 549.743H174.069V559.347C173.701 559.335 173.405 559.298 173.086 559.298C168.794 559.298 164.846 560.947 161.87 563.529H146.251C145.575 563.529 145.021 564.083 145.021 564.759C145.021 565.435 145.575 565.989 146.251 565.989H159.583C158.709 567.218 157.983 568.448 157.418 569.801H146.251C145.575 569.801 145.021 570.354 145.021 571.031C145.021 571.707 145.575 572.261 146.251 572.261H156.619C156.311 573.491 156.151 574.856 156.151 576.221C156.151 578.434 156.582 580.624 157.356 582.468H142.906V582.456ZM173.074 590.683C165.104 590.683 158.623 584.202 158.623 576.233C158.623 568.264 165.092 561.783 173.074 561.783C181.055 561.783 187.524 568.264 187.524 576.233C187.524 584.202 181.043 590.683 173.074 590.683Z" fill="#404040"/>
<path d="M146.251 559.827H158.709C159.386 559.827 159.939 559.274 159.939 558.598C159.939 557.921 159.386 557.368 158.709 557.368H146.251C145.575 557.368 145.021 557.921 145.021 558.598C145.021 559.274 145.575 559.827 146.251 559.827Z" fill="#404040"/>
<path d="M173.946 567.157C173.713 566.911 173.393 566.763 173.049 566.763C172.704 566.763 172.385 566.911 172.151 567.157L164.944 574.892C164.477 575.384 164.514 576.171 165.006 576.626C165.498 577.094 166.297 577.057 166.764 576.565L171.856 571.117V584.546C171.856 585.223 172.409 585.776 173.086 585.776C173.762 585.776 174.316 585.223 174.316 584.546V571.117L179.37 576.565C179.616 576.823 179.936 576.958 180.268 576.958C180.563 576.958 180.858 576.848 181.104 576.626C181.596 576.159 181.633 575.384 181.166 574.892L173.946 567.157Z" fill="#404040"/>
</g>
<line x1="217.453" y1="550.186" x2="401.552" y2="550.186" stroke="#909090" stroke-width="8"/>
<line x1="217.453" y1="589.13" x2="401.552" y2="589.13" stroke="#909090" stroke-width="8"/>
<line x1="133.664" y1="631.615" x2="317.763" y2="631.615" stroke="#909090" stroke-width="8"/>
<line x1="133.664" y1="672.919" x2="317.763" y2="672.919" stroke="#909090" stroke-width="8"/>
<g clip-path="url(#clip5_125_323)">
<path d="M375.406 650.553C377.645 650.553 379.46 648.738 379.46 646.499C379.46 644.261 377.645 642.446 375.406 642.446C373.168 642.446 371.353 644.261 371.353 646.499C371.353 648.738 373.168 650.553 375.406 650.553Z" fill="#404040"/>
<path d="M408.682 661.42C406.768 659.618 404.347 658.436 401.701 658.098V637.491C401.701 635.295 400.8 633.324 399.392 631.86C397.928 630.397 395.958 629.552 393.762 629.552H361.106C358.91 629.552 356.939 630.453 355.475 631.86C354.012 633.324 353.167 635.295 353.167 637.491V663.447V665.868V671.104C353.167 673.3 354.068 675.271 355.475 676.734C356.939 678.198 358.91 679.043 361.106 679.043H392.692C394.775 680.732 397.365 681.802 400.237 681.802C403.559 681.802 406.543 680.45 408.682 678.311C410.822 676.171 412.173 673.187 412.173 669.865C412.173 666.543 410.822 663.559 408.682 661.42ZM356.151 637.491C356.151 636.14 356.714 634.901 357.615 634.056C358.516 633.155 359.755 632.592 361.106 632.592H393.762C395.113 632.592 396.352 633.155 397.253 634.056C398.154 634.957 398.717 636.196 398.717 637.547V655.114L390.384 646.781C389.821 646.218 388.863 646.162 388.244 646.781L375.688 659.393L367.187 650.835C366.624 650.272 365.666 650.215 365.047 650.835L356.151 659.843V637.491ZM361.05 676.171V676.059C359.698 676.059 358.46 675.496 357.559 674.595C356.714 673.694 356.151 672.455 356.151 671.104V665.868V664.122L366.117 654.1L374.619 662.602C375.182 663.165 376.139 663.165 376.758 662.602L389.314 649.99L397.534 658.267C397.365 658.323 397.196 658.379 397.028 658.436C396.802 658.492 396.577 658.548 396.296 658.661C396.07 658.717 395.845 658.83 395.62 658.886C395.451 658.942 395.338 658.999 395.17 659.111C394.944 659.224 394.775 659.28 394.606 659.393C394.325 659.562 394.043 659.731 393.762 659.9C393.593 660.012 393.48 660.069 393.311 660.181C393.199 660.237 393.143 660.294 393.03 660.35C392.523 660.688 392.073 661.082 391.679 661.532C389.539 663.672 388.188 666.656 388.188 669.978C388.188 670.823 388.3 671.611 388.469 672.455C388.526 672.681 388.582 672.849 388.638 673.075C388.807 673.638 388.976 674.201 389.201 674.764V674.82C389.427 675.271 389.652 675.777 389.933 676.171H361.05ZM406.487 676.171C404.854 677.804 402.658 678.761 400.181 678.761C397.816 678.761 395.62 677.804 394.043 676.284C393.818 676.059 393.593 675.777 393.368 675.552C393.199 675.383 393.03 675.158 392.861 674.989C392.636 674.708 392.467 674.37 392.298 674.032C392.185 673.807 392.073 673.638 391.96 673.413C391.848 673.131 391.735 672.793 391.679 672.455C391.622 672.23 391.51 671.949 391.453 671.723C391.341 671.16 391.285 670.541 391.285 669.922C391.285 667.444 392.298 665.249 393.875 663.616C395.451 661.983 397.703 661.026 400.181 661.026C402.658 661.026 404.854 662.039 406.487 663.616C408.119 665.249 409.076 667.444 409.076 669.922C409.076 672.343 408.063 674.539 406.487 676.171Z" fill="#404040"/>
<path d="M401.251 663.841C401.138 663.728 400.969 663.616 400.744 663.503C400.575 663.447 400.406 663.391 400.237 663.391C400.181 663.391 400.181 663.391 400.181 663.391C400.125 663.391 400.125 663.391 400.125 663.391C399.956 663.391 399.787 663.447 399.618 663.503C399.449 663.56 399.28 663.672 399.111 663.841L395.621 667.332C395.057 667.895 395.057 668.852 395.621 669.471C396.184 670.034 397.141 670.034 397.76 669.471L398.661 668.571V674.764C398.661 675.609 399.337 676.284 400.181 676.284C401.026 676.284 401.701 675.609 401.701 674.764V668.571L402.602 669.471C403.165 670.034 404.122 670.034 404.742 669.471C405.305 668.908 405.305 667.951 404.742 667.332L401.251 663.841Z" fill="#404040"/>
</g>
</g>
<defs>
<filter id="filter0_bd_125_323" x="0" y="0.861328" width="480.001" height="739.66" filterUnits="userSpaceOnUse" color-interpolation-filters="sRGB">
<feFlood flood-opacity="0" result="BackgroundImageFix"/>
<feGaussianBlur in="BackgroundImage" stdDeviation="5"/>
<feComposite in2="SourceAlpha" operator="in" result="effect1_backgroundBlur_125_323"/>
<feColorMatrix in="SourceAlpha" type="matrix" values="0 0 0 0 0 0 0 0 0 0 0 0 0 0 0 0 0 0 127 0" result="hardAlpha"/>
<feOffset dx="-60" dy="10"/>
<feGaussianBlur stdDeviation="15"/>
<feComposite in2="hardAlpha" operator="out"/>
<feColorMatrix type="matrix" values="0 0 0 0 0.858824 0 0 0 0 0.968627 0 0 0 0 1 0 0 0 0.4 0"/>
<feBlend mode="normal" in2="effect1_backgroundBlur_125_323" result="effect2_dropShadow_125_323"/>
<feBlend mode="normal" in="SourceGraphic" in2="effect2_dropShadow_125_323" result="shape"/>
</filter>
<clipPath id="clip0_125_323">
<rect width="92.2857" height="100.311" fill="white" transform="translate(137.166 164.745) rotate(2)"/>
</clipPath>
<clipPath id="clip1_125_323">
<rect width="92.2857" height="100.311" fill="white" transform="translate(138.928 337.443)"/>
</clipPath>
<clipPath id="clip2_125_323">
<rect width="81.4286" height="88.5093" fill="white" transform="translate(331.926 348.845)"/>
</clipPath>
<clipPath id="clip3_125_323">
<rect width="86.8571" height="94.4099" fill="white" transform="translate(341.121 181.267) rotate(2)"/>
</clipPath>
<clipPath id="clip4_125_323">
<rect width="59.0062" height="59.0062" fill="white" transform="translate(133.664 534.124)"/>
</clipPath>
<clipPath id="clip5_125_323">
<rect width="59.0062" height="59.0062" fill="white" transform="translate(353.167 626.174)"/>
</clipPath>
</defs>
</svg>
