<svg width="470" height="743" viewBox="0 0 470 743" fill="none" xmlns="http://www.w3.org/2000/svg">
<g filter="url(#filter0_bd_125_227)">
<path d="M90 42.6402C90 30.4733 100.773 21.1252 112.818 22.8397L452.818 71.2346C462.676 72.6377 470 81.0782 470 91.035V682.645C470 693.69 461.046 702.645 450 702.645H110C98.9543 702.645 90 693.69 90 682.645V42.6402Z" fill="#F9FEFF" fill-opacity="0.6"/>
<path d="M92 32.8636C92 26.7702 97.4032 22.0933 103.434 22.9669L459.434 74.537C464.351 75.2493 468 79.4646 468 84.4337V121.34C468 127.378 462.69 132.039 456.703 131.256L100.703 84.6761C95.7237 84.0247 92 79.782 92 74.7606V32.8636Z" stroke="black" stroke-width="4"/>
<path d="M389.817 106.453V78.777L411.677 82.4203V109.056L389.817 106.453Z" stroke="black" stroke-width="3"/>
<line x1="435.075" y1="87.9191" x2="449.281" y2="115.147" stroke="black" stroke-width="4"/>
<line x1="449.078" y1="90.0835" x2="431.321" y2="112.576" stroke="black" stroke-width="4"/>
<line x1="134.617" y1="41.4922" x2="134.617" y2="72.271" stroke="black" stroke-width="4"/>
<line x1="121.053" y1="54.9003" x2="149.197" y2="58.7824" stroke="black" stroke-width="4"/>
<line x1="337.687" y1="86.863" x2="368.177" y2="91.0685" stroke="black" stroke-width="4"/>
<path d="M156.568 58.6572C156.568 64.8876 154.624 70.2784 151.156 74.094C147.705 77.8925 142.645 80.2414 136.168 80.2414C129.814 80.2414 123.524 76.9534 118.786 71.9948C114.045 67.0336 111.032 60.5811 111.032 54.5139C111.032 42.3394 120.232 33.5217 133.208 33.5217C139.562 33.5217 145.394 36.6614 149.669 41.4366C153.95 46.2174 156.568 52.5287 156.568 58.6572Z" stroke="black" stroke-width="3"/>
<path d="M167.815 162.747C167.815 170.866 165.41 177.916 161.104 182.912C156.818 187.884 150.564 190.927 142.607 190.927C134.777 190.927 127.032 186.656 121.199 180.22C115.368 173.788 111.625 165.381 111.625 157.42C111.625 141.436 123.084 130.001 138.998 130.001C146.828 130.001 154.018 134.081 159.292 140.291C164.568 146.503 167.815 154.727 167.815 162.747Z" stroke="black" stroke-width="3"/>
<path d="M92 113.664C92 107.655 97.2623 103.003 103.226 103.74L459.226 147.727C464.237 148.346 468 152.603 468 157.651V231.575C468 237.394 463.051 241.985 457.248 241.547L101.248 214.712C96.0319 214.319 92 209.972 92 204.74V113.664Z" stroke="black" stroke-width="4"/>
<line x1="200.468" y1="167.872" x2="365.57" y2="182.316" stroke="#404040" stroke-width="6"/>
<g clip-path="url(#clip0_125_227)">
<path d="M418.49 199.347C418.151 199.688 417.688 199.878 417.208 199.878C416.727 199.878 416.265 199.688 415.926 199.347L405.687 189.107C404.625 188.045 404.625 186.322 405.687 185.261L406.969 183.979C408.032 182.917 409.753 182.917 410.816 183.979L417.208 190.371L434.479 173.099C435.542 172.037 437.265 172.037 438.326 173.099L439.608 174.381C440.67 175.444 440.67 177.166 439.608 178.227L418.49 199.347Z" fill="#00B2FF"/>
</g>
<path d="M167.815 290.598C167.815 298.717 165.41 305.767 161.104 310.763C156.818 315.735 150.564 318.777 142.607 318.777C134.777 318.777 127.032 314.507 121.199 308.071C115.368 301.638 111.625 293.232 111.625 285.271C111.625 269.286 123.084 257.852 138.998 257.852C146.828 257.852 154.018 261.931 159.292 268.141C164.568 274.354 167.815 282.577 167.815 290.598Z" stroke="black" stroke-width="3"/>
<path d="M92 240.952C92 235.111 96.9852 230.513 102.807 230.985L458.807 259.82C464 260.24 468 264.577 468 269.787V350.846C468 356.573 463.2 361.13 457.481 360.832L101.481 342.315C96.1668 342.039 92 337.649 92 332.328V240.952Z" stroke="black" stroke-width="4"/>
<line x1="200.251" y1="293.605" x2="365.756" y2="302.279" stroke="#404040" stroke-width="6"/>
<path d="M418.49 317.727C418.151 318.068 417.688 318.258 417.208 318.258C416.727 318.258 416.265 318.068 415.926 317.727L405.687 307.487C404.625 306.425 404.625 304.702 405.687 303.641L406.969 302.359C408.032 301.296 409.753 301.296 410.816 302.359L417.208 308.751L434.479 291.479C435.542 290.417 437.265 290.417 438.326 291.479L439.608 292.761C440.67 293.824 440.67 295.546 439.608 296.607L418.49 317.727Z" fill="#00B2FF"/>
<path d="M167.815 418.448C167.815 426.567 165.41 433.617 161.104 438.613C156.818 443.585 150.564 446.628 142.607 446.628C134.777 446.628 127.032 442.357 121.199 435.921C115.368 429.489 111.625 421.082 111.625 413.121C111.625 397.137 123.084 385.702 138.998 385.702C146.828 385.702 154.018 389.782 159.292 395.992C164.568 402.204 167.815 410.428 167.815 418.448Z" stroke="black" stroke-width="3"/>
<path d="M92 368.346C92 362.646 96.7571 358.099 102.451 358.356L458.451 374.437C463.793 374.678 468 379.079 468 384.427V465.527C468 471.113 463.424 475.616 457.838 475.526L101.838 469.762C96.3791 469.674 92 465.223 92 459.763V368.346Z" stroke="black" stroke-width="4"/>
<line x1="200.146" y1="422.636" x2="365.853" y2="425.528" stroke="#404040" stroke-width="6"/>
<path d="M414.939 438.475C414.6 438.816 414.137 439.006 413.657 439.006C413.176 439.006 412.714 438.816 412.375 438.475L402.137 428.235C401.074 427.172 401.074 425.45 402.137 424.389L403.419 423.107C404.482 422.044 406.202 422.044 407.265 423.107L413.657 429.499L430.929 412.227C431.992 411.164 433.714 411.164 434.775 412.227L436.057 413.509C437.119 414.572 437.119 416.294 436.057 417.355L414.939 438.475Z" fill="#00B2FF"/>
<path d="M92 499.391C92 493.804 96.5777 489.301 102.164 489.393L455.929 495.193C461.343 495.281 465.703 499.664 465.765 505.078L467.863 690.532C467.926 696.098 463.431 700.645 457.863 700.645H102C96.4772 700.645 92 696.168 92 690.645V499.391Z" stroke="black" stroke-width="4"/>
<g clip-path="url(#clip1_125_227)">
<path d="M282.96 549.602V558.85H273.711V549.602H282.96ZM273.711 603.936V617.115H282.96V603.936H273.711ZM301.456 654.109V644.861H292.208V635.612H282.96V654.109H301.456ZM319.953 585.439H292.208V594.688H319.953V585.439ZM319.953 603.936H332.901V594.688H319.953V603.936ZM319.953 617.115V626.364H342.15V603.936H332.901V617.115H319.953ZM292.208 535.729H282.96V549.602H292.208V535.729ZM282.96 577.347H292.208V558.85H282.96V568.099H273.711V594.688H282.96V577.347ZM223.77 585.439V603.936H233.018V594.688H246.891V585.439H223.77ZM292.208 603.936V594.688H282.96V603.936H292.208ZM310.705 613.185H319.953V603.936H310.705V613.185ZM332.901 594.688H342.15V585.439H332.901V594.688ZM301.456 603.936H292.208V617.115H282.96V626.364H301.456V603.936ZM273.711 635.612H282.96V626.364H273.711V635.612ZM301.456 626.364V635.612H319.953V626.364H301.456ZM329.202 644.861V635.612H319.953V644.861H329.202ZM342.15 654.109V644.861H329.202V654.109H342.15ZM310.705 654.109H319.953V644.861H310.705V654.109ZM265.388 594.688V585.439H256.139V594.688H246.891V603.936H273.711V594.688H265.388ZM265.388 577.347H223.77V535.729H265.388V577.347ZM256.139 544.977H233.018V568.099H256.139V544.977ZM249.203 551.914H239.954V561.162H249.203V551.914ZM342.15 535.729V577.347H300.532V535.729H342.15ZM332.901 544.977H309.78V568.099H332.901V544.977ZM325.965 551.914H316.716V561.162H325.965V551.914ZM223.77 612.491H265.388V654.109H223.77V612.491ZM233.018 644.861H256.139V621.74H233.018V644.861ZM239.954 637.924H249.203V628.676H239.954V637.924Z" fill="#404040"/>
</g>
</g>
<defs>
<filter id="filter0_bd_125_227" x="0" y="0.861328" width="480" height="741.783" filterUnits="userSpaceOnUse" color-interpolation-filters="sRGB">
<feFlood flood-opacity="0" result="BackgroundImageFix"/>
<feGaussianBlur in="BackgroundImage" stdDeviation="5"/>
<feComposite in2="SourceAlpha" operator="in" result="effect1_backgroundBlur_125_227"/>
<feColorMatrix in="SourceAlpha" type="matrix" values="0 0 0 0 0 0 0 0 0 0 0 0 0 0 0 0 0 0 127 0" result="hardAlpha"/>
<feOffset dx="-60" dy="10"/>
<feGaussianBlur stdDeviation="15"/>
<feComposite in2="hardAlpha" operator="out"/>
<feColorMatrix type="matrix" values="0 0 0 0 0.858824 0 0 0 0 0.968627 0 0 0 0 1 0 0 0 0.4 0"/>
<feBlend mode="normal" in2="effect1_backgroundBlur_125_227" result="effect2_dropShadow_125_227"/>
<feBlend mode="normal" in="SourceGraphic" in2="effect2_dropShadow_125_227" result="shape"/>
</filter>
<clipPath id="clip0_125_227">
<rect width="35.514" height="35.514" fill="white" transform="translate(404.891 172.302)"/>
</clipPath>
<clipPath id="clip1_125_227">
<rect width="118.38" height="118.38" fill="white" transform="translate(223.77 535.729)"/>
</clipPath>
</defs>
</svg>
