<svg width="671" height="910" viewBox="0 0 671 910" fill="none" xmlns="http://www.w3.org/2000/svg">
<g filter="url(#filter0_f_121_12)">
<path d="M20 865.5L644.13 822.776C649.753 822.391 652.756 829.271 648.65 833.133L637.04 844.052C636.044 844.989 634.756 845.558 633.392 845.663L215 878L20 865.5Z" fill="#404040" fill-opacity="0.25"/>
</g>
<path d="M209.688 8.57195L220.988 7.43053C233.648 6.15177 244.94 15.3949 246.189 28.0576L325.166 829.189C326.452 842.237 316.588 853.719 303.495 854.414L213.218 859.204C200.055 859.902 189 849.417 189 836.236V31.4555C189 19.648 197.94 9.75858 209.688 8.57195Z" fill="#2F2F2F" stroke="#404040" stroke-width="2"/>
<path d="M230.832 5.15059L621.317 74.3965C630.389 76.0053 636.999 83.8911 636.999 93.1047V816.329C636.999 826.371 629.185 834.679 619.162 835.294L228.678 859.244C217.747 859.914 208.515 851.23 208.515 840.279V23.8587C208.515 12.038 219.193 3.08659 230.832 5.15059Z" fill="black" stroke="#404040" stroke-width="2"/>
<path d="M230.832 5.15059L621.317 74.3965C630.389 76.0053 636.999 83.8911 636.999 93.1047V816.329C636.999 826.371 629.185 834.679 619.162 835.294L228.678 859.244C217.747 859.914 208.515 851.23 208.515 840.279V23.8587C208.515 12.038 219.193 3.08659 230.832 5.15059Z" fill="black" stroke="#404040" stroke-width="2"/>
<path d="M247.586 68.4318L611.56 125.062C614.97 125.593 617.484 128.529 617.484 131.979V770.263C617.484 774.036 614.494 777.13 610.723 777.259L246.748 789.662C242.791 789.797 239.51 786.626 239.51 782.667V75.3485C239.51 71.0535 243.342 67.7714 247.586 68.4318Z" fill="white" stroke="#404040" stroke-width="2"/>
<path d="M411.294 804.585L453.247 802.713C458.648 802.471 463.158 806.785 463.158 812.191C463.158 817.201 459.262 821.347 454.262 821.66L412.349 824.279C406.671 824.634 401.872 820.125 401.872 814.437C401.872 809.162 406.024 804.821 411.294 804.585Z" fill="white" stroke="black" stroke-width="3"/>
<path d="M447.586 75.1912C447.586 79.4601 444.372 82.8009 440.55 82.8009C436.729 82.8009 433.515 79.4601 433.515 75.1912C433.515 70.9224 436.729 67.5815 440.55 67.5815C444.372 67.5815 447.586 70.9224 447.586 75.1912Z" fill="#A6A6A6" stroke="black" stroke-width="2"/>
<defs>
<filter id="filter0_f_121_12" x="0" y="802.761" width="670.555" height="95.2393" filterUnits="userSpaceOnUse" color-interpolation-filters="sRGB">
<feFlood flood-opacity="0" result="BackgroundImageFix"/>
<feBlend mode="normal" in="SourceGraphic" in2="BackgroundImageFix" result="shape"/>
<feGaussianBlur stdDeviation="10" result="effect1_foregroundBlur_121_12"/>
</filter>
</defs>
</svg>
