<svg width="470" height="756" viewBox="0 0 470 756" fill="none" xmlns="http://www.w3.org/2000/svg">
<g filter="url(#filter0_bd_125_142)">
<path d="M90 42.7022C90 30.5139 100.809 21.1596 112.871 22.9093L452.871 72.2268C462.705 73.6532 470 82.083 470 92.0196V695.667C470 706.712 461.046 715.667 450 715.667H110C98.9543 715.667 90 706.712 90 695.667V42.7022Z" fill="#F9FEFF" fill-opacity="0.6"/>
<path d="M92 113.072C92 107.063 97.2621 102.411 103.226 103.148L179.849 112.613C184.86 113.232 188.623 117.489 188.623 122.537V703.075C188.623 708.598 184.146 713.075 178.623 713.075H102C96.4772 713.075 92 708.598 92 703.075V113.072Z" stroke="black" stroke-width="4"/>
<g clip-path="url(#clip0_125_142)">
<path d="M160.194 168.596L162.515 166.275C163.417 165.373 163.417 163.911 162.515 163.01C161.613 162.108 160.151 162.108 159.249 163.01L156.929 165.33C153.035 162.086 148.304 160.126 143.257 159.667V155.02H145.489C146.765 155.02 147.798 153.986 147.798 152.711C147.798 151.436 146.765 150.402 145.489 150.402H136.407C135.131 150.402 134.098 151.436 134.098 152.711C134.098 153.986 135.131 155.02 136.407 155.02H138.639V159.667C126.005 160.816 115.933 171.429 115.933 184.576C115.933 198.402 127.121 209.592 140.948 209.592C154.773 209.592 165.963 198.404 165.963 184.576C165.963 178.671 163.929 173.078 160.194 168.596ZM140.948 204.974C129.701 204.974 120.551 195.824 120.551 184.576C120.551 173.33 129.701 164.18 140.948 164.18C152.195 164.18 161.345 173.33 161.345 184.576C161.345 195.824 152.195 204.974 140.948 204.974ZM151.649 173.876C152.551 174.777 152.551 176.24 151.649 177.141L142.581 186.209C141.679 187.111 140.217 187.111 139.315 186.209C138.413 185.308 138.413 183.845 139.315 182.944L148.383 173.876C149.285 172.974 150.747 172.974 151.649 173.876Z" fill="black"/>
</g>
<g clip-path="url(#clip1_125_142)">
<path d="M122.175 279.51H124.488V281.822C124.488 282.78 125.264 283.556 126.222 283.556C127.179 283.556 127.956 282.78 127.956 281.822V279.51H130.268C131.226 279.51 132.002 278.734 132.002 277.776C132.002 276.818 131.226 276.042 130.268 276.042H127.956V273.73C127.956 272.772 127.179 271.996 126.222 271.996C125.264 271.996 124.488 272.772 124.488 273.73V276.042H122.175C121.218 276.042 120.441 276.818 120.441 277.776C120.441 278.734 121.218 279.51 122.175 279.51Z" fill="black"/>
<path d="M149.112 279.51H156.048C157.006 279.51 157.782 278.734 157.782 277.776C157.782 276.818 157.006 276.042 156.048 276.042H149.112C148.154 276.042 147.378 276.818 147.378 277.776C147.378 278.734 148.154 279.51 149.112 279.51Z" fill="black"/>
<path d="M156.626 305.29H148.534C147.576 305.29 146.8 306.067 146.8 307.024C146.8 307.982 147.576 308.758 148.534 308.758H156.626C157.584 308.758 158.36 307.982 158.36 307.024C158.36 306.067 157.584 305.29 156.626 305.29Z" fill="black"/>
<path d="M156.626 299.51H148.534C147.576 299.51 146.8 300.286 146.8 301.244C146.8 302.202 147.576 302.978 148.534 302.978H156.626C157.584 302.978 158.36 302.202 158.36 301.244C158.36 300.286 157.584 299.51 156.626 299.51Z" fill="black"/>
<path d="M130.338 300.018C129.661 299.341 128.563 299.341 127.886 300.018L126.222 301.682L124.558 300.018C123.881 299.341 122.783 299.341 122.106 300.018C121.428 300.695 121.428 301.793 122.106 302.47L123.77 304.134L122.106 305.798C121.428 306.476 121.428 307.573 122.106 308.251C122.444 308.589 122.888 308.759 123.332 308.759C123.776 308.759 124.219 308.589 124.558 308.251L126.222 306.587L127.886 308.251C128.224 308.589 128.668 308.759 129.112 308.759C129.556 308.759 130 308.589 130.338 308.251C131.015 307.573 131.015 306.475 130.338 305.798L128.674 304.134L130.338 302.47C131.016 301.793 131.016 300.695 130.338 300.018Z" fill="black"/>
<path d="M167.493 294.212V268.065C167.493 265.197 165.159 262.863 162.291 262.863H116.511C113.642 262.863 111.309 265.197 111.309 268.065V313.845C111.309 316.714 113.642 319.047 116.511 319.047H142.657C145.5 320.945 148.913 322.053 152.58 322.053C162.46 322.053 170.499 314.015 170.499 304.134C170.499 300.467 169.391 297.054 167.493 294.212ZM164.025 268.065V290.358C160.918 287.772 156.928 286.215 152.58 286.215C148.232 286.215 144.241 287.772 141.135 290.358V266.331H162.291C163.247 266.331 164.025 267.109 164.025 268.065ZM116.511 266.331H137.667V289.221H114.777V268.065C114.777 267.109 115.555 266.331 116.511 266.331ZM114.777 313.845V292.689H137.667V294.212C135.769 297.054 134.661 300.467 134.661 304.134C134.661 308.482 136.218 312.473 138.803 315.579H116.511C115.555 315.579 114.777 314.801 114.777 313.845ZM152.58 318.585C144.612 318.585 138.129 312.102 138.129 304.134C138.129 296.166 144.612 289.684 152.58 289.684C160.548 289.684 167.03 296.166 167.03 304.134C167.03 312.102 160.548 318.585 152.58 318.585Z" fill="black"/>
</g>
<g clip-path="url(#clip2_125_142)">
<path d="M150.666 403.762L138.375 394.827C137.924 394.5 137.325 394.451 136.831 394.705C136.333 394.957 136.021 395.469 136.021 396.023V413.886C136.021 414.445 136.333 414.955 136.831 415.207C137.042 415.314 137.272 415.367 137.505 415.367C137.808 415.367 138.115 415.27 138.375 415.079L150.666 406.153C151.054 405.867 151.28 405.426 151.28 404.957C151.282 404.481 151.05 404.041 150.666 403.762Z" fill="black"/>
<path d="M140.905 375.327C124.556 375.327 111.309 388.575 111.309 404.923C111.309 421.265 124.556 434.509 140.905 434.509C157.249 434.509 170.499 421.263 170.499 404.923C170.501 388.575 157.249 375.327 140.905 375.327ZM140.905 429.571C127.29 429.571 116.252 418.539 116.252 404.923C116.252 391.312 127.29 380.267 140.905 380.267C154.517 380.267 165.553 391.31 165.553 404.923C165.555 418.539 154.517 429.571 140.905 429.571Z" fill="black"/>
</g>
<path d="M411.249 555.009L398.958 546.075C398.507 545.748 397.908 545.699 397.414 545.953C396.916 546.205 396.604 546.717 396.604 547.271V565.133C396.604 565.693 396.916 566.203 397.414 566.455C397.625 566.561 397.855 566.614 398.088 566.614C398.391 566.614 398.698 566.518 398.958 566.327L411.249 557.4C411.637 557.115 411.863 556.674 411.863 556.205C411.865 555.728 411.633 555.289 411.249 555.009Z" fill="#404040"/>
<g clip-path="url(#clip3_125_142)">
<path d="M156.317 509.981H138.437V519.846H156.317C157.329 519.846 158.167 519.008 158.167 517.997V511.831C158.167 510.82 157.329 509.981 156.317 509.981ZM123.64 511.831V517.997C123.64 519.008 124.478 519.846 125.489 519.846H133.505V509.981H125.489C124.478 509.981 123.64 510.82 123.64 511.831Z" fill="black"/>
<path d="M156.317 524.779H138.437V534.644H156.317C157.329 534.644 158.167 533.805 158.167 532.794V526.628C158.167 525.617 157.329 524.779 156.317 524.779ZM123.64 526.628V532.794C123.64 533.805 124.478 534.644 125.489 534.644H133.505V524.779H125.489C124.478 524.779 123.64 525.617 123.64 526.628Z" fill="black"/>
<path d="M163.1 490.251H118.707C114.628 490.251 111.309 493.571 111.309 497.65V537.11C111.309 541.189 114.628 544.509 118.707 544.509H163.1C167.179 544.509 170.499 541.189 170.499 537.11V497.65C170.499 493.571 167.179 490.251 163.1 490.251ZM163.1 539.576H118.707C117.348 539.576 116.241 538.472 116.241 537.11V502.583H165.566V537.11C165.566 538.472 164.459 539.576 163.1 539.576Z" fill="black"/>
</g>
<g clip-path="url(#clip4_125_142)">
<path d="M146.348 634.789H135.467C134.556 634.789 133.818 635.527 133.818 636.438V657.787C133.818 658.698 134.556 659.436 135.467 659.436H146.348C147.258 659.436 147.996 658.698 147.996 657.787V636.438C147.996 635.527 147.258 634.789 146.348 634.789ZM144.699 656.139H137.116V638.087H144.699V656.139Z" fill="black"/>
<path d="M167.945 621.848H156.982C156.071 621.848 155.333 622.586 155.333 623.496V657.788C155.333 658.698 156.071 659.436 156.982 659.436H167.945C168.856 659.436 169.594 658.698 169.594 657.788V623.496C169.594 622.586 168.856 621.848 167.945 621.848ZM166.296 656.139H158.63V625.145H166.296V656.139Z" fill="black"/>
<path d="M124.834 642.785H113.87C112.96 642.785 112.222 643.523 112.222 644.434V657.788C112.222 658.698 112.96 659.436 113.87 659.436H124.834C125.744 659.436 126.482 658.698 126.482 657.788V644.434C126.482 643.523 125.744 642.785 124.834 642.785ZM123.185 656.139H115.519V646.082H123.185V656.139Z" fill="black"/>
<path d="M169.758 601.899C169.507 601.554 169.113 601.342 168.686 601.322L153.684 600.251C152.773 600.182 151.98 600.865 151.912 601.776C151.843 602.686 152.526 603.48 153.437 603.548L164.055 604.269L144.534 619.54L129.614 607.835C128.977 607.33 128.068 607.365 127.471 607.917L112.139 622.589C111.487 623.208 111.451 624.234 112.057 624.898C112.351 625.279 112.812 625.494 113.293 625.475C113.728 625.468 114.143 625.291 114.447 624.98L128.708 611.296L143.463 622.919C144.065 623.401 144.921 623.401 145.523 622.919L166.626 606.498L165.801 616.737C165.797 617.632 166.476 618.383 167.368 618.468H167.45C168.3 618.472 169.014 617.83 169.099 616.984L170.17 603.053C170.231 602.624 170.077 602.193 169.758 601.899Z" fill="black"/>
</g>
<path d="M92 32.8636C92 26.7702 97.4032 22.0933 103.434 22.9669L459.434 74.537C464.351 75.2493 468 79.4646 468 84.4337V121.34C468 127.378 462.69 132.039 456.703 131.256L100.703 84.6761C95.7237 84.0247 92 79.782 92 74.7606V32.8636Z" stroke="black" stroke-width="4"/>
<path d="M389.817 106.453V78.777L411.677 82.4203V109.056L389.817 106.453Z" stroke="black" stroke-width="3"/>
<line x1="435.075" y1="87.9191" x2="449.281" y2="115.147" stroke="black" stroke-width="4"/>
<line x1="449.078" y1="90.0835" x2="431.321" y2="112.576" stroke="black" stroke-width="4"/>
<line x1="134.617" y1="41.4922" x2="134.617" y2="72.271" stroke="black" stroke-width="4"/>
<line x1="121.053" y1="54.9003" x2="149.197" y2="58.7824" stroke="black" stroke-width="4"/>
<line x1="337.687" y1="86.863" x2="368.177" y2="91.0685" stroke="black" stroke-width="4"/>
<path d="M156.568 58.6572C156.568 64.8876 154.624 70.2784 151.156 74.094C147.705 77.8925 142.645 80.2414 136.168 80.2414C129.814 80.2414 123.524 76.9534 118.786 71.9948C114.045 67.0336 111.032 60.5811 111.032 54.5139C111.032 42.3394 120.232 33.5217 133.208 33.5217C139.562 33.5217 145.394 36.6614 149.669 41.4366C153.95 46.2174 156.568 52.5287 156.568 58.6572Z" stroke="black" stroke-width="3"/>
<path d="M213.932 129.62C213.932 123.618 219.181 118.968 225.139 119.693L459.208 148.163C464.226 148.773 468 153.034 468 158.089V299.659C468 305.473 463.059 310.062 457.26 309.631L223.191 292.259C217.97 291.871 213.932 287.522 213.932 282.286V129.62Z" stroke="black" stroke-width="4"/>
<path d="M213.932 325.437C213.932 319.643 218.839 315.063 224.618 315.46L458.687 331.566C463.931 331.927 468 336.286 468 341.542V470.658C468 476.307 463.325 480.834 457.679 480.653L223.611 473.137C218.216 472.964 213.932 468.54 213.932 463.142V325.437Z" stroke="black" stroke-width="4"/>
<path d="M213.932 511.968C213.932 506.334 218.584 501.813 224.215 501.972L458.284 508.615C463.694 508.769 468 513.199 468 518.611V703.075C468 708.598 463.523 713.075 458 713.075H223.932C218.409 713.075 213.932 708.598 213.932 703.075V511.968Z" stroke="black" stroke-width="4"/>
<path d="M231.688 347.901C231.688 342.117 236.582 337.539 242.354 337.923L289.382 341.059C294.635 341.409 298.717 345.772 298.717 351.037V387.25C298.717 393.068 293.77 397.657 287.969 397.222L240.941 393.695C235.723 393.304 231.688 388.956 231.688 383.723V347.901Z" stroke="#404040" stroke-width="4"/>
<path d="M364.274 534.565C364.274 528.898 368.979 524.363 374.642 524.571L431.14 526.648C436.516 526.846 440.773 531.262 440.773 536.642V573.813C440.773 579.336 436.296 583.813 430.773 583.813H374.274C368.752 583.813 364.274 579.336 364.274 573.813V536.389V534.565Z" stroke="#404040" stroke-width="4"/>
<line x1="291.508" y1="166.354" x2="440.664" y2="179.404" stroke="#A0A0A0" stroke-width="6"/>
<line x1="317.447" y1="361.674" x2="435.665" y2="367.869" stroke="#A0A0A0" stroke-width="6"/>
<line x1="320.896" y1="398.631" x2="403.649" y2="402.967" stroke="#A0A0A0" stroke-width="6"/>
<line x1="320.896" y1="398.631" x2="403.649" y2="402.967" stroke="#A0A0A0" stroke-width="6"/>
<line x1="242.762" y1="541.608" x2="330.478" y2="543.139" stroke="#A0A0A0" stroke-width="6"/>
<line x1="242.762" y1="577.122" x2="349.288" y2="578.981" stroke="#A0A0A0" stroke-width="6"/>
<line x1="240.604" y1="156.884" x2="275.983" y2="159.979" stroke="#A0A0A0" stroke-width="6"/>
<line x1="392.105" y1="217.255" x2="440.548" y2="221.068" stroke="#A0A0A0" stroke-width="6"/>
<line x1="231.107" y1="205.417" x2="376.845" y2="216.887" stroke="#A0A0A0" stroke-width="6"/>
<line x1="231.081" y1="259.87" x2="443.646" y2="274.734" stroke="#A0A0A0" stroke-width="6"/>
<line x1="242.637" y1="433.632" x2="431.785" y2="443.545" stroke="#A0A0A0" stroke-width="6"/>
<rect x="244.21" y="644.363" width="19.4922" height="38.433" stroke="#404040" stroke-width="3"/>
<rect x="277.356" y="605.297" width="19.4922" height="77.4984" stroke="#404040" stroke-width="3"/>
<rect x="310.503" y="625.422" width="19.4922" height="57.3738" stroke="#404040" stroke-width="3"/>
<rect x="343.649" y="660.936" width="19.4922" height="21.8598" stroke="#404040" stroke-width="3"/>
</g>
<defs>
<filter id="filter0_bd_125_142" x="0" y="0.861328" width="480" height="754.805" filterUnits="userSpaceOnUse" color-interpolation-filters="sRGB">
<feFlood flood-opacity="0" result="BackgroundImageFix"/>
<feGaussianBlur in="BackgroundImage" stdDeviation="5"/>
<feComposite in2="SourceAlpha" operator="in" result="effect1_backgroundBlur_125_142"/>
<feColorMatrix in="SourceAlpha" type="matrix" values="0 0 0 0 0 0 0 0 0 0 0 0 0 0 0 0 0 0 127 0" result="hardAlpha"/>
<feOffset dx="-60" dy="10"/>
<feGaussianBlur stdDeviation="15"/>
<feComposite in2="hardAlpha" operator="out"/>
<feColorMatrix type="matrix" values="0 0 0 0 0.858333 0 0 0 0 0.967803 0 0 0 0 1 0 0 0 0.4 0"/>
<feBlend mode="normal" in2="effect1_backgroundBlur_125_142" result="effect2_dropShadow_125_142"/>
<feBlend mode="normal" in="SourceGraphic" in2="effect2_dropShadow_125_142" result="shape"/>
</filter>
<clipPath id="clip0_125_142">
<rect width="59.19" height="59.19" fill="white" transform="translate(111.309 150.402)"/>
</clipPath>
<clipPath id="clip1_125_142">
<rect width="59.19" height="59.19" fill="white" transform="translate(111.309 262.863)"/>
</clipPath>
<clipPath id="clip2_125_142">
<rect width="59.19" height="59.19" fill="white" transform="translate(111.309 375.324)"/>
</clipPath>
<clipPath id="clip3_125_142">
<rect width="59.19" height="59.19" fill="white" transform="translate(111.309 487.785)"/>
</clipPath>
<clipPath id="clip4_125_142">
<rect width="59.19" height="59.19" fill="white" transform="translate(111.309 600.246)"/>
</clipPath>
</defs>
</svg>
