<svg width="569" height="450" viewBox="0 0 569 450" fill="none" xmlns="http://www.w3.org/2000/svg">
<g clip-path="url(#clip0_809_2)">
<path d="M358.554 344.345C314.136 319.715 318.262 306.491 283.347 274.333C266.75 262.819 287.046 222.202 300.493 202.82L318.262 177.206C331.709 157.825 356.064 151.453 372.658 162.974L461.971 224.934C478.572 236.45 481.127 261.495 467.682 280.873L449.912 306.491C436.47 325.861 375.155 355.861 358.554 344.345Z" fill="white"/>
<path d="M444.053 182.802L417.732 164.54C413.394 161.531 407.437 162.607 404.427 166.945L391.025 186.263C388.015 190.601 389.092 196.558 393.43 199.567L419.752 217.829C424.09 220.839 430.046 219.762 433.056 215.424L446.458 196.106C449.468 191.768 448.391 185.812 444.053 182.802Z" fill="url(#paint0_linear_809_2)"/>
<path d="M542.003 183.673C565.533 150.081 549.1 97.976 505.297 67.2931C461.494 36.6102 406.91 38.9685 383.379 72.5606C359.849 106.153 376.283 158.258 420.085 188.941C463.888 219.624 518.472 217.265 542.003 183.673Z" fill="white"/>
<path d="M487.319 189.866L395.979 126.497C393.812 124.994 391.962 123.078 390.535 120.859C389.108 118.64 388.132 116.162 387.662 113.566C387.193 110.97 387.24 108.308 387.8 105.73C388.36 103.152 389.422 100.71 390.926 98.5423L411.374 69.0675C412.744 67.0928 414.842 65.7424 417.207 65.3127C419.572 64.8829 422.011 65.4088 423.988 66.7751L533.434 142.687C535.409 144.057 536.759 146.155 537.189 148.519C537.618 150.884 537.093 153.323 535.726 155.3L515.278 184.775C513.777 186.945 511.862 188.798 509.645 190.229C507.427 191.659 504.949 192.639 502.353 193.111C499.757 193.584 497.093 193.541 494.513 192.984C491.934 192.427 489.489 191.368 487.319 189.866Z" fill="url(#paint1_linear_809_2)"/>
<path d="M486.137 132.412L447.674 105.727C441.338 101.331 432.637 102.904 428.241 109.24L408.659 137.466C404.262 143.802 405.835 152.502 412.172 156.898L450.634 183.583C456.97 187.98 465.671 186.407 470.067 180.07L489.65 151.845C494.046 145.508 492.473 136.808 486.137 132.412Z" fill="url(#paint2_linear_809_2)"/>
<path d="M496.278 178.295L402.891 113.508C400.178 111.624 398.323 108.74 397.736 105.489C397.148 102.239 397.876 98.8876 399.758 96.1731L414.04 75.5811C415.237 73.8564 417.07 72.6776 419.136 72.3042C421.202 71.9307 423.332 72.393 425.057 73.5895L525.906 143.554C526.76 144.147 527.489 144.901 528.052 145.775C528.614 146.649 528.999 147.625 529.184 148.648C529.369 149.671 529.351 150.72 529.131 151.736C528.91 152.751 528.492 153.714 527.9 154.568L513.615 175.158C511.731 177.873 508.847 179.728 505.596 180.316C502.344 180.905 498.993 180.177 496.278 178.295V178.295Z" fill="#383838"/>
<path d="M445.113 118.35C446.554 117.861 447.807 116.935 448.697 115.7C451.527 111.618 449.499 105.312 444.161 101.614C438.823 97.9149 432.21 98.2229 429.377 102.303C428.534 103.568 428.105 105.065 428.15 106.585L445.113 118.35Z" fill="white"/>
<path d="M493.749 152.096C495.19 151.605 496.442 150.678 497.334 149.445C500.167 145.365 498.136 139.057 492.798 135.359C487.459 131.66 480.847 131.968 478.014 136.048C477.17 137.314 476.742 138.81 476.787 140.33L493.749 152.096Z" fill="white"/>
<path d="M401.237 49.1232L395.493 45.1375C394.204 44.2438 392.436 44.5635 391.542 45.8517L377.07 66.7111C376.176 67.9993 376.496 69.7681 377.784 70.6618L383.529 74.6475C384.817 75.5412 386.586 75.2215 387.48 73.9333L401.952 53.074C402.845 51.7858 402.526 50.017 401.237 49.1232Z" fill="url(#paint3_linear_809_2)"/>
<path d="M561.05 159.998L555.305 156.013C554.017 155.119 552.248 155.439 551.354 156.727L536.882 177.586C535.989 178.874 536.308 180.643 537.597 181.537L543.341 185.523C544.629 186.416 546.398 186.097 547.292 184.808L561.764 163.949C562.658 162.661 562.338 160.892 561.05 159.998Z" fill="url(#paint4_linear_809_2)"/>
<path d="M339.746 449.129H64.0423C57.5075 449.121 51.2426 446.522 46.6218 441.901C42.0011 437.281 39.4019 431.016 39.3945 424.481V24.6477C39.4019 18.113 42.0011 11.848 46.6218 7.2273C51.2426 2.60656 57.5075 0.00737978 64.0423 0H339.746C346.281 0.00738174 352.546 2.60656 357.167 7.2273C361.788 11.848 364.387 18.113 364.394 24.6477V424.481C364.387 431.016 361.788 437.281 357.167 441.901C352.546 446.522 346.281 449.121 339.746 449.129Z" fill="#3F3D56"/>
<path d="M340.232 433.403H63.5569C61.5425 433.4 59.6113 432.599 58.1869 431.175C56.7625 429.75 55.9613 427.819 55.959 425.805V23.3237C55.9613 21.3093 56.7625 19.3781 58.1869 17.9537C59.6113 16.5293 61.5425 15.7281 63.5569 15.7258H340.232C342.246 15.7281 344.177 16.5293 345.602 17.9537C347.026 19.3781 347.827 21.3093 347.83 23.3237V425.805C347.827 427.819 347.026 429.75 345.602 431.175C344.177 432.599 342.246 433.4 340.232 433.403Z" fill="white"/>
<path d="M77.0552 200.926C77.8275 190.439 79.1027 177.547 89.4785 171.944C94.3745 169.301 99.5587 170.236 104.481 172.296C109.237 174.288 113.718 176.661 118.841 177.597C127.671 179.121 136.758 177.758 144.753 173.711C152.807 169.707 159.267 163.095 163.084 154.951C165.049 150.809 166.672 146.32 169.567 142.705C171.023 140.808 172.953 139.327 175.164 138.412C177.374 137.497 179.787 137.181 182.158 137.495C193.038 138.838 200.258 148.37 208.931 153.982C213.102 156.681 217.892 158.652 222.943 158.41C228.123 158.162 232.82 155.71 236.79 152.508C245.214 145.715 249.82 135.209 258.661 128.879C262.853 125.952 267.717 124.134 272.8 123.594C277.883 123.054 283.021 123.809 287.734 125.789C296.795 129.698 303.211 138.455 304.905 148.093C305.311 150.468 305.416 152.884 305.217 155.285C305.107 156.701 307.313 156.693 307.423 155.285C307.754 150.29 306.926 145.286 305.003 140.664C303.08 136.042 300.115 131.927 296.339 128.64C288.517 121.892 277.589 119.699 267.65 122.296C262.589 123.638 257.938 126.209 254.109 129.781C250.02 133.552 246.795 138.121 243.343 142.452C239.976 146.678 236.261 150.758 231.534 153.487C229.271 154.866 226.735 155.736 224.102 156.035C221.469 156.335 218.802 156.057 216.287 155.221C211.186 153.5 206.863 149.954 202.781 146.56C198.573 143.06 194.386 139.559 189.328 137.335C184.626 135.268 179.233 134.265 174.338 136.301C169.925 138.137 167.004 141.947 164.839 146.068C162.641 150.252 161.076 154.762 158.512 158.751C156.032 162.569 152.849 165.882 149.133 168.513C141.585 173.906 132.406 176.528 123.148 175.937C118.118 175.579 113.544 173.99 108.989 171.908C103.962 169.61 98.6664 167.219 93.0097 168.333C88.1302 169.293 84.0249 172.608 81.1747 176.568C77.8839 181.141 76.438 186.746 75.6832 192.251C75.2884 195.131 75.0627 198.028 74.8493 200.926C74.745 202.343 76.9514 202.336 77.0552 200.926Z" fill="#E4E4E4"/>
<path d="M30.071 389.235L27.924 400.007C27.7622 400.83 27.5931 401.669 27.4093 402.5C25.6147 402.128 23.7541 402.232 22.0122 402.801C23.3942 404.776 24.6327 406.847 25.7181 409C24.3651 413.169 22.3798 417.022 19.0563 419.808C16.8366 421.628 14.1854 422.845 11.3584 423.343C8.53142 423.84 5.62403 423.6 2.91661 422.647L3.01221 422.22C-0.561323 415.286 1.37985 406.544 5.82102 400.139C8.0862 396.98 10.7701 394.143 13.799 391.706C16.7989 389.206 20.0416 386.963 23.2548 384.75C23.9765 384.253 24.8298 383.983 25.7056 383.975C26.5814 383.966 27.44 384.218 28.1717 384.699C28.9034 385.181 29.4749 385.87 29.8132 386.677C30.1515 387.485 30.2413 388.376 30.071 389.235Z" fill="#E4E4E4"/>
<path d="M3.67933 448.566C2.77566 441.983 1.84625 435.316 2.48007 428.662C3.04331 422.753 4.84551 416.982 8.5161 412.249C10.4643 409.742 12.8349 407.594 15.5213 405.902C16.222 405.461 16.8661 406.57 16.169 407.01C11.521 409.947 7.92597 414.285 5.90212 419.397C3.66683 425.083 3.30801 431.28 3.69624 437.319C3.92933 440.972 4.42272 444.599 4.92051 448.224C4.9606 448.388 4.93648 448.561 4.85309 448.708C4.76971 448.855 4.63337 448.964 4.47198 449.013C4.30781 449.058 4.13279 449.036 3.98492 448.952C3.83706 448.868 3.7283 448.729 3.68227 448.565L3.67933 448.566Z" fill="#F2F2F2"/>
<path d="M200.845 9.64516C202.003 9.64516 202.942 8.7064 202.942 7.54838C202.942 6.39036 202.003 5.4516 200.845 5.4516C199.687 5.4516 198.748 6.39036 198.748 7.54838C198.748 8.7064 199.687 9.64516 200.845 9.64516Z" fill="white"/>
<path d="M323.437 201.645H74.7295C74.5231 201.645 74.3251 201.562 74.1792 201.417C74.0332 201.271 73.9512 201.073 73.9512 200.866L74.3289 200L323.437 200.088C323.643 200.087 323.842 200.168 323.988 200.314C324.135 200.459 324.217 200.657 324.218 200.863C324.219 201.07 324.138 201.268 323.992 201.414C323.847 201.561 323.649 201.644 323.443 201.644L323.437 201.645Z" fill="#3F3D56"/>
<path d="M122.038 196.199H120.512V200.549H122.038V196.199Z" fill="#3F3D56"/>
<path d="M167.741 171.199H166.215V200.549H167.741V171.199Z" fill="#3F3D56"/>
<path d="M213.538 135.905H212.012V200.549H213.538V135.905Z" fill="#3F3D56"/>
<path d="M259.335 105.758H257.809V200.549H259.335V105.758Z" fill="#3F3D56"/>
<path d="M305.132 174.876H303.605V200.549H305.132V174.876Z" fill="#3F3D56"/>
<path d="M258.666 100.475C261.245 100.475 263.336 98.3839 263.336 95.8047C263.336 93.2255 261.245 91.1346 258.666 91.1346C256.087 91.1346 253.996 93.2255 253.996 95.8047C253.996 98.3839 256.087 100.475 258.666 100.475Z" fill="#00B0FF"/>
<path d="M212.602 128.869C215.181 128.869 217.272 126.778 217.272 124.199C217.272 121.62 215.181 119.529 212.602 119.529C210.022 119.529 207.932 121.62 207.932 124.199C207.932 126.778 210.022 128.869 212.602 128.869Z" fill="#00B0FF"/>
<path d="M304.463 170.944C307.042 170.944 309.133 168.853 309.133 166.273C309.133 163.694 307.042 161.603 304.463 161.603C301.884 161.603 299.793 163.694 299.793 166.273C299.793 168.853 301.884 170.944 304.463 170.944Z" fill="#00B0FF"/>
<path d="M165.758 363.61V308.508C165.758 307.802 166.58 307.229 167.594 307.229H175.786C176.8 307.229 177.622 307.802 177.622 308.508V363.754L165.758 363.61Z" fill="#3F3D56"/>
<path d="M192.816 363.796V321.694C192.816 321.014 193.638 320.464 194.652 320.464H202.845C203.859 320.464 204.681 321.014 204.681 321.694V363.705L192.816 363.796Z" fill="#3F3D56"/>
<path d="M246.936 363.698V342.285C246.864 342.029 247.683 341.807 248.772 341.788H256.965C258.053 341.807 258.872 342.029 258.8 342.285V363.754L246.936 363.698Z" fill="#3F3D56"/>
<path d="M138.699 363.698V342.285C138.699 342.01 139.521 341.788 140.535 341.788H148.728C149.742 341.788 150.564 342.01 150.564 342.285V363.754L138.699 363.698Z" fill="#3F3D56"/>
<path d="M219.877 363.484V260.083C219.877 258.756 220.699 257.681 221.713 257.681H229.906C230.919 257.681 231.741 258.756 231.741 260.083V363.754L219.877 363.484Z" fill="#00B0FF"/>
<path d="M294.109 364.706H108.815C108.62 364.706 108.433 364.628 108.295 364.491C108.158 364.353 108.08 364.166 108.08 363.971C108.08 363.776 108.158 363.589 108.295 363.451C108.433 363.313 108.62 363.235 108.815 363.235H294.109C294.304 363.235 294.491 363.313 294.629 363.451C294.767 363.589 294.845 363.776 294.845 363.971C294.845 364.166 294.767 364.353 294.629 364.491C294.491 364.628 294.304 364.706 294.109 364.706Z" fill="#3F3D56"/>
<path d="M669 450H-102C-102.265 450 -102.52 449.923 -102.707 449.785C-102.895 449.647 -103 449.46 -103 449.265C-103 449.07 -102.895 448.883 -102.707 448.745C-102.52 448.607 -102.265 448.529 -102 448.529H669C669.265 448.529 669.52 448.607 669.707 448.745C669.895 448.883 670 449.07 670 449.265C670 449.46 669.895 449.647 669.707 449.785C669.52 449.923 669.265 450 669 450Z" fill="#CACACA"/>
<path d="M121.67 192.34C124.249 192.34 126.34 190.249 126.34 187.67C126.34 185.091 124.249 183 121.67 183C119.091 183 117 185.091 117 187.67C117 190.249 119.091 192.34 121.67 192.34Z" fill="#00B0FF"/>
<path d="M166.67 168.34C169.249 168.34 171.34 166.249 171.34 163.67C171.34 161.091 169.249 159 166.67 159C164.091 159 162 161.091 162 163.67C162 166.249 164.091 168.34 166.67 168.34Z" fill="#00B0FF"/>
</g>
<defs>
<linearGradient id="paint0_linear_809_2" x1="362.068" y1="-85.4866" x2="508.713" y2="630.81" gradientUnits="userSpaceOnUse">
<stop stop-color="#5D535A"/>
<stop offset="1" stop-color="#464143"/>
</linearGradient>
<linearGradient id="paint1_linear_809_2" x1="402.919" y1="-68.4338" x2="530.889" y2="361.166" gradientUnits="userSpaceOnUse">
<stop stop-color="#5D535A"/>
<stop offset="1" stop-color="#464143"/>
</linearGradient>
<linearGradient id="paint2_linear_809_2" x1="377.922" y1="-94.3614" x2="523.389" y2="393.994" gradientUnits="userSpaceOnUse">
<stop stop-color="#5D535A"/>
<stop offset="1" stop-color="#464143"/>
</linearGradient>
<linearGradient id="paint3_linear_809_2" x1="376.844" y1="34.2613" x2="433.57" y2="149.337" gradientUnits="userSpaceOnUse">
<stop stop-color="#5D535A"/>
<stop offset="1" stop-color="#464143"/>
</linearGradient>
<linearGradient id="paint4_linear_809_2" x1="452.694" y1="-25.1692" x2="509.42" y2="89.9059" gradientUnits="userSpaceOnUse">
<stop stop-color="#5D535A"/>
<stop offset="1" stop-color="#464143"/>
</linearGradient>
<clipPath id="clip0_809_2">
<rect width="568.382" height="450" fill="white"/>
</clipPath>
</defs>
</svg>
